<svg width="80" height="80" viewBox="0 0 80 80" fill="none" xmlns="http://www.w3.org/2000/svg">
<path d="M40.0013 56.6667C34.4226 56.6667 29.567 60.8834 27.0602 67.104C25.8628 70.075 27.5809 73.3334 29.8639 73.3334H50.1386C52.4216 73.3334 54.1396 70.075 52.9423 67.104C50.4356 60.8834 45.58 56.6667 40.0013 56.6667Z" stroke="#5A90C5" stroke-width="5" stroke-linecap="round"/>
<path d="M61.6654 16.6667H65.6727C69.6757 16.6667 71.677 16.6667 72.7214 17.9246C73.7654 19.1824 73.3314 21.0705 72.463 24.8465L71.1604 30.5103C69.2017 39.0287 62.035 45.3627 53.332 46.6667" stroke="#5A90C5" stroke-width="5" stroke-linecap="round" stroke-linejoin="round"/>
<path d="M18.3346 16.6667H14.3273C10.3244 16.6667 8.32294 16.6667 7.27877 17.9246C6.23461 19.1824 6.66877 21.0705 7.53714 24.8465L8.83957 30.5103C10.7984 39.0287 17.965 45.3627 26.668 46.6667" stroke="#5A90C5" stroke-width="5" stroke-linecap="round" stroke-linejoin="round"/>
<path d="M39.9987 56.6667C50.068 56.6667 58.5487 41.1264 61.0977 19.9697C61.8027 14.1186 62.1554 11.1931 60.288 8.92989C58.421 6.66669 55.4064 6.66669 49.3767 6.66669H30.6206C24.5912 6.66669 21.5765 6.66669 19.7093 8.92989C17.8421 11.1931 18.1945 14.1186 18.8995 19.9697C21.4487 41.1264 29.9295 56.6667 39.9987 56.6667Z" stroke="#5A90C5" stroke-width="5" stroke-linecap="round"/>
</svg>
