<svg width="564" height="421" viewBox="0 0 564 421" fill="none" xmlns="http://www.w3.org/2000/svg">
<path d="M348.148 42.3786C357.073 39.2234 366.536 37.8737 375.987 38.4081C422.866 41.3747 452.375 82.4562 460.993 125.421C473.514 187.732 441.817 251.486 397.272 293.605C395.828 294.981 394.362 296.324 392.873 297.655C346.535 338.883 284.506 359.988 222.985 361.747C184.294 362.875 138.385 349.779 112.858 319.075C86.1585 286.984 92.0805 214.465 142.919 211.081C163.63 209.694 182.941 217.217 202.884 221.346C230.531 227.076 260.626 221.526 283.31 204.325C328.43 170.158 287.822 107.701 315.424 66.7094C323.061 55.3392 335.018 46.9921 348.148 42.3786Z" fill="#5A90C5"/>
<path opacity="0.9" d="M348.148 42.3786C357.073 39.2234 366.536 37.8737 375.987 38.4081C422.866 41.3747 452.375 82.4562 460.993 125.421C473.514 187.732 441.817 251.486 397.272 293.605C395.828 294.981 394.362 296.324 392.873 297.655C346.535 338.883 284.506 359.988 222.985 361.747C184.294 362.875 138.385 349.779 112.858 319.075C86.1585 286.984 92.0805 214.465 142.919 211.081C163.63 209.694 182.941 217.217 202.884 221.346C230.531 227.076 260.626 221.526 283.31 204.325C328.43 170.158 287.822 107.701 315.424 66.7094C323.061 55.3392 335.018 46.9921 348.148 42.3786Z" fill="white"/>
<path d="M282.005 420.245C402.794 420.245 500.713 414.528 500.713 407.476C500.713 400.424 402.794 394.707 282.005 394.707C161.216 394.707 63.2969 400.424 63.2969 407.476C63.2969 414.528 161.216 420.245 282.005 420.245Z" fill="#F5F5F5"/>
<path d="M462.992 371.922C463.161 370.794 467.109 343.53 459.202 334.123C458.415 333.131 457.418 332.327 456.283 331.767C455.147 331.207 453.902 330.906 452.637 330.885C436.664 330.513 434.487 343.293 434.465 343.462L436.349 343.756C436.416 343.293 438.311 332.476 452.592 332.791C453.587 332.806 454.566 333.042 455.458 333.483C456.35 333.924 457.132 334.559 457.747 335.341C465.101 344.105 461.131 371.358 461.131 371.64L462.992 371.922Z" fill="#5A90C5"/>
<path d="M463.947 370.681L465.853 370.613C465.853 370.365 465.222 345.515 477.46 340.383C489.462 335.363 494.865 345.696 495.08 346.135L496.783 345.278C496.727 345.154 490.387 332.87 476.727 338.634C463.282 344.263 463.913 369.598 463.947 370.681Z" fill="#5A90C5"/>
<path d="M463.891 372.632C463.891 372.238 464.015 332.938 471.674 321.444C479.029 310.401 490.85 315.601 491.403 315.804L492.181 314.067C492.046 314.011 478.352 307.965 470.084 320.361C462.109 332.329 461.996 370.963 461.996 372.61L463.891 372.632Z" fill="#5A90C5"/>
<path d="M450.35 331.833C450.35 331.833 457.321 334.405 455.245 340.462C453.17 346.519 431.14 356.513 431.14 356.513C431.14 356.513 421.902 348.053 430.384 334.292C438.867 320.53 450.158 327.49 450.35 331.833Z" fill="#5A90C5"/>
<path d="M472.015 319.368C472.015 319.368 467.074 318.838 467.503 315.826C467.932 312.814 486.746 305.054 497.857 317.597C497.857 317.597 490.74 329.825 480.452 330.005C470.165 330.186 472.015 319.368 472.015 319.368Z" fill="#5A90C5"/>
<path d="M477.147 339.526C477.147 339.526 473.763 336.773 477.418 335.431C481.073 334.089 499.188 334.461 499.369 352.351C499.369 352.351 478.309 355.859 475.681 349.035C473.053 342.21 477.147 339.526 477.147 339.526Z" fill="#5A90C5"/>
<path opacity="0.2" d="M450.35 331.833C450.35 331.833 457.321 334.405 455.245 340.462C453.17 346.519 431.14 356.513 431.14 356.513C431.14 356.513 421.902 348.053 430.384 334.292C438.867 320.53 450.158 327.49 450.35 331.833Z" fill="black"/>
<path opacity="0.2" d="M472.015 319.368C472.015 319.368 467.074 318.838 467.503 315.826C467.932 312.814 486.746 305.054 497.857 317.597C497.857 317.597 490.74 329.825 480.452 330.005C470.165 330.186 472.015 319.368 472.015 319.368Z" fill="black"/>
<path opacity="0.2" d="M477.147 339.526C477.147 339.526 473.763 336.773 477.418 335.431C481.073 334.089 499.188 334.461 499.369 352.351C499.369 352.351 478.309 355.859 475.681 349.035C473.053 342.21 477.147 339.526 477.147 339.526Z" fill="black"/>
<path d="M446.597 408.412H479.287L482.806 372.632H443.078L446.597 408.412Z" fill="#5A90C5"/>
<path opacity="0.5" d="M446.597 408.412H479.287L482.806 372.632H443.078L446.597 408.412Z" fill="white"/>
<path d="M441.334 376.569H484.559V368.673H441.334V376.569Z" fill="#5A90C5"/>
<path opacity="0.2" d="M441.334 376.569H484.559V368.673H441.334V376.569Z" fill="white"/>
<path d="M409.6 382.762L377.103 379.57V333.886H364.221V379.547L331.633 382.762C330.071 382.916 328.621 383.645 327.566 384.809C326.511 385.972 325.927 387.486 325.926 389.056V393.94H415.353V389.056C415.354 387.478 414.764 385.957 413.699 384.792C412.634 383.627 411.172 382.903 409.6 382.762Z" fill="#263238"/>
<path opacity="0.2" d="M409.6 382.762L377.103 379.57V333.886H364.221V379.547L331.633 382.762C330.071 382.916 328.621 383.645 327.566 384.809C326.511 385.972 325.927 387.486 325.926 389.056V393.94H415.353V389.056C415.354 387.478 414.764 385.957 413.699 384.792C412.634 383.627 411.172 382.903 409.6 382.762Z" fill="white"/>
<path d="M329.328 408.424C333.982 408.424 337.755 404.651 337.755 399.998C337.755 395.344 333.982 391.572 329.328 391.572C324.675 391.572 320.902 395.344 320.902 399.998C320.902 404.651 324.675 408.424 329.328 408.424Z" fill="#263238"/>
<path d="M411.883 408.424C416.537 408.424 420.309 404.651 420.309 399.998C420.309 395.344 416.537 391.572 411.883 391.572C407.23 391.572 403.457 395.344 403.457 399.998C403.457 404.651 407.23 408.424 411.883 408.424Z" fill="#263238"/>
<path d="M362.016 303.024H379.33V339.041C379.33 340.276 378.839 341.461 377.966 342.335C377.092 343.209 375.907 343.699 374.672 343.699H366.674C365.439 343.699 364.254 343.209 363.38 342.335C362.506 341.461 362.016 340.276 362.016 339.041V303.024Z" fill="#263238"/>
<path opacity="0.3" d="M362.016 303.024H379.33V339.041C379.33 340.276 378.839 341.461 377.966 342.335C377.092 343.209 375.907 343.699 374.672 343.699H366.674C365.439 343.699 364.254 343.209 363.38 342.335C362.506 341.461 362.016 340.276 362.016 339.041V303.024Z" fill="white"/>
<path d="M401.459 231.633C401.459 231.633 403.918 292.545 386.953 303.024H406.321C406.321 303.024 421.323 282.28 417.082 231.633H401.459Z" fill="#263238"/>
<path opacity="0.3" d="M401.459 231.633C401.459 231.633 403.918 292.545 386.953 303.024H406.321C406.321 303.024 421.323 282.28 417.082 231.633H401.459Z" fill="white"/>
<path d="M412.91 307.694H326.145V300.148C326.145 298.652 326.739 297.217 327.797 296.16C328.855 295.102 330.289 294.508 331.785 294.508H407.27C408.766 294.508 410.201 295.102 411.258 296.16C412.316 297.217 412.91 298.652 412.91 300.148V307.694Z" fill="#263238"/>
<path d="M324.787 307.694H414.248C415.501 307.694 416.516 306.679 416.516 305.427V303.374C416.516 302.122 415.501 301.107 414.248 301.107H324.787C323.535 301.107 322.52 302.122 322.52 303.374V305.427C322.52 306.679 323.535 307.694 324.787 307.694Z" fill="#263238"/>
<path opacity="0.6" d="M324.787 307.694H414.248C415.501 307.694 416.516 306.679 416.516 305.427V303.374C416.516 302.122 415.501 301.107 414.248 301.107H324.787C323.535 301.107 322.52 302.122 322.52 303.374V305.427C322.52 306.679 323.535 307.694 324.787 307.694Z" fill="white"/>
<path d="M421.829 198.978H390.809C381.726 198.978 374.363 206.341 374.363 215.424V227.561C374.363 236.644 381.726 244.008 390.809 244.008H421.829C430.912 244.008 438.275 236.644 438.275 227.561V215.424C438.275 206.341 430.912 198.978 421.829 198.978Z" fill="#263238"/>
<path d="M296.716 149.211L290.524 132.889C290.524 132.889 293.186 130.43 291.358 127.937C289.531 125.444 278.116 118.439 276.04 119.669C273.965 120.898 269.329 125.546 271.833 128.129C274.337 130.712 285.369 135.009 285.369 135.009L290.851 156.441L296.716 149.211Z" fill="#E4897B"/>
<path d="M339.96 180.242C339.96 180.242 311.76 174.455 308.748 173.068C305.737 171.68 294.412 138.483 294.412 138.483L285.715 142.544C285.715 142.544 292.708 175.865 299.86 183.784C307.011 191.702 337.535 198.447 337.535 198.447L339.96 180.242Z" fill="#5A90C5"/>
<path opacity="0.2" d="M337.469 198.414L336.95 198.29C335.416 197.94 330.599 196.812 324.88 195.131C315.597 192.435 303.889 188.363 299.805 183.795C292.665 175.899 285.66 142.544 285.66 142.544L294.346 138.483C294.346 138.483 305.682 171.691 308.75 173.068C311.818 174.444 339.962 180.242 339.962 180.242L337.469 198.414Z" fill="black"/>
<path d="M294.487 137.829L296.28 141.292L285.113 145.139L285.542 140.909L294.487 137.829Z" fill="#5A90C5"/>
<path opacity="0.2" d="M337.678 197.951C336.122 197.726 331.238 196.97 325.395 195.695C328.722 189.943 338.468 186.987 338.468 186.987L337.678 197.951Z" fill="black"/>
<path d="M379.667 157.253C379.667 157.253 381.325 172.854 375.55 176.689C369.775 180.524 341.338 176.035 338.112 169.752C334.886 163.469 347.023 146.436 347.023 146.436L379.667 157.253Z" fill="#263238"/>
<path d="M264.621 362.526L272.043 364.319L275.8 354.077L279.206 344.76L270.757 341.161L267.509 352.464L264.621 362.526Z" fill="#E4897B"/>
<path opacity="0.2" d="M267.512 352.464L275.802 354.077L279.209 344.76L270.76 341.161L267.512 352.464Z" fill="black"/>
<path d="M268.25 347.06L278.537 350.884C278.537 350.884 305.981 282.269 311.621 282.077C317.261 281.885 374.687 308.235 389.081 293.594C403.474 278.952 382.662 243.646 382.662 243.646C382.662 243.646 348.044 238.705 345.439 246.522C344.797 248.827 344.307 251.17 343.972 253.539C343.577 255.93 343.307 257.938 343.307 257.938C342.235 257.667 307.482 248.699 293.788 257.938C279.857 267.334 268.25 347.06 268.25 347.06Z" fill="#5A90C5"/>
<path opacity="0.6" d="M268.25 347.06L278.537 350.884C278.537 350.884 305.981 282.269 311.621 282.077C317.261 281.885 374.687 308.235 389.081 293.594C403.474 278.952 382.662 243.646 382.662 243.646C382.662 243.646 348.044 238.705 345.439 246.522C344.797 248.827 344.307 251.17 343.972 253.539C343.577 255.93 343.307 257.938 343.307 257.938C342.235 257.667 307.482 248.699 293.788 257.938C279.857 267.334 268.25 347.06 268.25 347.06Z" fill="white"/>
<path d="M327.423 391.797L334.811 389.913L333.39 379.298L332.07 369.575L322.934 370.399L325.302 381.735L327.423 391.797Z" fill="#E4897B"/>
<path opacity="0.2" d="M325.367 381.961L333.443 379.502L332.101 369.677L322.953 370.455L325.367 381.961Z" fill="black"/>
<path d="M282.794 347.072L267.803 341.985L267.16 348.121L278.53 352.137L282.794 347.072Z" fill="#5A90C5"/>
<path d="M364.22 297.068C364.22 297.068 361.874 297.124 325.564 295.432C325.564 295.432 330.99 340.823 333.956 374.809L323.094 376.659C323.094 376.659 297.15 303.892 297.432 292.33C297.714 280.768 310.968 277.384 310.968 277.384C310.968 277.384 336.833 292.33 364.22 297.068Z" fill="#5A90C5"/>
<path opacity="0.6" d="M364.22 297.068C364.22 297.068 361.874 297.124 325.564 295.432C325.564 295.432 330.99 340.823 333.956 374.809L323.094 376.659C323.094 376.659 297.15 303.892 297.432 292.33C297.714 280.768 310.968 277.384 310.968 277.384C310.968 277.384 336.833 292.33 364.22 297.068Z" fill="white"/>
<path opacity="0.1" d="M364.22 297.068C364.22 297.068 361.874 297.124 325.564 295.432C325.564 295.432 330.99 340.823 333.956 374.809L323.094 376.659C323.094 376.659 297.15 303.892 297.432 292.33C297.714 280.768 310.968 277.384 310.968 277.384C310.968 277.384 336.833 292.33 364.22 297.068Z" fill="black"/>
<path d="M335.537 371.516L320.613 373.219L323.501 379.062L335.582 377.517L335.537 371.516Z" fill="#5A90C5"/>
<path opacity="0.1" d="M343.312 257.938L363.56 262.157C363.56 262.157 352.37 255.975 343.978 253.539C343.583 255.93 343.312 257.938 343.312 257.938Z" fill="black"/>
<path d="M381.835 238.266L382.67 243.646L345.446 246.523L344.465 240.15L381.835 238.266Z" fill="#263238"/>
<path opacity="0.2" d="M381.835 238.266L382.67 243.646L345.446 246.523L344.465 240.15L381.835 238.266Z" fill="black"/>
<path d="M370.093 247.28L371.934 247.091L370.97 237.722L369.13 237.911L370.093 247.28Z" fill="#5A90C5"/>
<path d="M353.553 246.345L361.703 245.821L361.306 239.641L353.156 240.165L353.553 246.345Z" fill="white"/>
<path d="M347.254 248.265L349.094 248.075L348.13 238.706L346.29 238.895L347.254 248.265Z" fill="#5A90C5"/>
<path opacity="0.6" d="M370.093 247.28L371.934 247.091L370.97 237.722L369.13 237.911L370.093 247.28Z" fill="white"/>
<path opacity="0.6" d="M347.254 248.265L349.094 248.075L348.13 238.706L346.29 238.895L347.254 248.265Z" fill="white"/>
<path d="M339.284 179.734C346.256 181.66 353.492 182.456 360.716 182.092C372.672 181.483 386.908 187.247 386.908 187.247L381.787 238.232L344.405 240.116C344.405 240.116 331.896 197.579 339.284 179.734Z" fill="#5A90C5"/>
<path d="M345.293 150.937C345.293 150.937 347.391 126.188 368.078 135.145C394.022 146.425 373.403 176.587 360.713 170.406C348.023 164.224 345.293 150.937 345.293 150.937Z" fill="#263238"/>
<path opacity="0.2" d="M351.098 183.479L351.695 197.466L356.332 190.89C356.332 190.89 354.673 206.355 355.643 214.781C355.643 214.781 356.535 199.677 358.633 190.89L363.562 197.466L370.634 183.569C370.634 183.569 359.185 179.452 351.098 183.479Z" fill="black"/>
<path d="M357.504 186.119L368.209 183.096C361.61 178.584 364.937 168.432 364.937 168.432L354.334 172.154C354.822 173.628 355.199 175.136 355.462 176.666C356.59 183.276 353.59 183.806 353.59 183.806L357.504 186.119Z" fill="#E4897B"/>
<path opacity="0.2" d="M354.328 172.097C354.816 173.571 355.193 175.08 355.456 176.609C360.532 174.568 364.92 168.353 364.92 168.353L354.328 172.097Z" fill="black"/>
<path d="M361.259 140.379C351.863 138.303 347.723 142.635 344.903 152.177C341.373 164.078 342.151 173.26 354.458 173.282C371.174 173.305 376.848 143.83 361.259 140.379Z" fill="#E4897B"/>
<path d="M351.083 153.001C350.025 154.237 348.821 155.339 347.496 156.283C347.685 156.735 347.997 157.125 348.395 157.41C348.794 157.695 349.263 157.863 349.752 157.896L351.083 153.001Z" fill="#DE5753"/>
<path d="M357.005 153.497C356.813 154.264 357.072 154.997 357.591 155.121C358.11 155.245 358.663 154.726 358.854 153.993C359.046 153.26 358.787 152.504 358.268 152.369C357.749 152.234 357.196 152.73 357.005 153.497Z" fill="#263238"/>
<path d="M358.473 152.426L356.973 151.365C356.973 151.365 357.458 152.978 358.473 152.426Z" fill="#263238"/>
<path d="M347.508 150.993C347.317 151.76 347.576 152.493 348.095 152.618C348.614 152.742 349.223 152.223 349.358 151.49C349.494 150.756 349.291 150.001 348.772 149.865C348.253 149.73 347.7 150.226 347.508 150.993Z" fill="#263238"/>
<path d="M348.979 149.921L347.434 148.895C347.434 148.895 347.964 150.463 348.979 149.921Z" fill="#263238"/>
<path d="M362.297 149.764C362.222 149.765 362.147 149.746 362.081 149.708C362.016 149.67 361.962 149.615 361.925 149.549C361.553 148.969 361.057 148.479 360.471 148.116C359.885 147.753 359.226 147.526 358.541 147.451C358.433 147.437 358.335 147.383 358.266 147.299C358.197 147.215 358.162 147.108 358.169 147C358.18 146.891 358.234 146.791 358.318 146.722C358.403 146.652 358.511 146.618 358.62 146.628C359.451 146.708 360.253 146.98 360.961 147.423C361.67 147.865 362.266 148.465 362.703 149.177C362.728 149.225 362.744 149.278 362.748 149.332C362.753 149.386 362.746 149.44 362.73 149.491C362.713 149.543 362.686 149.591 362.65 149.632C362.615 149.672 362.571 149.706 362.523 149.73C362.451 149.758 362.374 149.77 362.297 149.764Z" fill="#263238"/>
<path d="M351.801 145.511C351.724 145.509 351.65 145.486 351.586 145.443C351.032 145.177 350.425 145.039 349.81 145.039C349.195 145.039 348.588 145.177 348.033 145.443C347.984 145.463 347.932 145.473 347.879 145.473C347.827 145.472 347.774 145.461 347.726 145.44C347.678 145.419 347.634 145.388 347.598 145.35C347.561 145.312 347.533 145.267 347.514 145.218C347.494 145.168 347.484 145.115 347.484 145.061C347.485 145.008 347.496 144.955 347.517 144.905C347.538 144.856 347.568 144.812 347.607 144.774C347.645 144.737 347.69 144.707 347.74 144.687C348.414 144.374 349.15 144.219 349.894 144.234C350.637 144.25 351.366 144.436 352.026 144.778C352.072 144.806 352.111 144.844 352.142 144.888C352.173 144.932 352.194 144.981 352.206 145.034C352.218 145.086 352.219 145.14 352.209 145.193C352.199 145.246 352.18 145.297 352.15 145.342C352.11 145.396 352.057 145.44 351.996 145.469C351.935 145.499 351.868 145.513 351.801 145.511Z" fill="#263238"/>
<path d="M368.011 158.471C368.011 158.471 365.326 149.786 367.311 143.977C367.311 143.977 350.391 132.257 345.293 150.936C345.293 150.936 347.177 133.768 363.409 136.972C379.64 140.175 374.328 163.762 364.435 168.95C364.435 168.95 369.658 163.897 368.011 158.471Z" fill="#263238"/>
<path d="M366.041 160.175C366.371 159.108 367.111 158.215 368.099 157.693C369.086 157.17 370.241 157.061 371.309 157.389C374.151 158.348 374.208 164.63 366.661 164.461C365.567 164.382 365.206 163.243 366.041 160.175Z" fill="#E4897B"/>
<path d="M348.051 161.461C348.302 162.612 348.468 163.781 348.547 164.957H349.156C351.965 165.194 353.341 164.371 354.018 163.401C354.341 162.919 354.543 162.365 354.604 161.788C354.652 161.462 354.652 161.132 354.604 160.806C352.794 161.43 350.87 161.657 348.964 161.472C348.423 161.506 348.051 161.461 348.051 161.461Z" fill="#263238"/>
<path d="M349.008 161.529L349.177 162.555C351.817 162.769 353.689 162.555 354.603 161.844C354.65 161.519 354.65 161.188 354.603 160.863C352.806 161.48 350.899 161.707 349.008 161.529Z" fill="white"/>
<path d="M349.156 165.014C351.965 165.251 353.341 164.427 354.018 163.457C352.953 163.388 351.884 163.506 350.86 163.807C350.179 164.02 349.583 164.442 349.156 165.014Z" fill="#DE5753"/>
<path d="M361.291 141.135C361.291 141.135 361.652 157.411 371.443 159.374C381.234 161.337 370.541 138.439 370.541 138.439C370.541 138.439 355.99 128.941 346.289 135.641C336.588 142.341 345.319 150.937 345.319 150.937C345.319 150.937 347.338 138.845 361.291 141.135Z" fill="#263238"/>
<path d="M365.026 156.035C364.96 156.034 364.896 156.011 364.846 155.967C357.897 150.508 361.326 140.063 361.36 139.961C361.386 139.891 361.437 139.833 361.505 139.799C361.572 139.765 361.649 139.759 361.721 139.781C361.791 139.806 361.849 139.859 361.88 139.926C361.912 139.994 361.916 140.071 361.89 140.142C361.89 140.243 358.563 150.294 365.195 155.528C365.222 155.553 365.244 155.583 365.258 155.617C365.273 155.651 365.281 155.688 365.281 155.725C365.281 155.762 365.273 155.799 365.258 155.832C365.244 155.866 365.222 155.897 365.195 155.922C365.177 155.952 365.152 155.977 365.123 155.997C365.093 156.016 365.061 156.029 365.026 156.035Z" fill="#263238"/>
<path d="M374.275 162.713C373.034 166.029 369.842 167.89 367.146 166.886C364.45 165.882 363.277 162.374 364.518 159.058C365.759 155.742 368.951 153.881 371.647 154.896C374.343 155.911 375.516 159.408 374.275 162.713Z" fill="#5A90C5"/>
<path opacity="0.4" d="M374.275 162.713C373.034 166.029 369.842 167.89 367.146 166.886C364.45 165.882 363.277 162.374 364.518 159.058C365.759 155.742 368.951 153.881 371.647 154.896C374.343 155.911 375.516 159.408 374.275 162.713Z" fill="black"/>
<path d="M371.117 157.287C371.117 157.287 375.166 139.16 366.086 134.411C367.12 134.547 368.145 134.746 369.154 135.009C370.282 135.348 377.58 142.702 373.914 158.99L371.117 157.287Z" fill="#5A90C5"/>
<path opacity="0.2" d="M371.117 157.287C371.117 157.287 375.166 139.16 366.086 134.411C367.12 134.547 368.145 134.746 369.154 135.009C370.282 135.348 377.58 142.702 373.914 158.99L371.117 157.287Z" fill="black"/>
<path d="M354.196 167.664L353.52 167.563L353.7 166.435C358.682 167.201 363.772 166.122 368.014 163.401L368.68 164.303C364.414 167.13 359.271 168.323 354.196 167.664Z" fill="#5A90C5"/>
<g opacity="0.2">
<path d="M354.196 167.664L353.52 167.563L353.7 166.435C358.682 167.201 363.772 166.122 368.014 163.401L368.68 164.303C364.414 167.13 359.271 168.323 354.196 167.664Z" fill="black"/>
</g>
<path d="M373.892 162.262C373.08 164.45 370.96 165.646 369.189 165.014C367.418 164.382 366.628 162.036 367.452 159.848C368.275 157.659 370.384 156.464 372.155 157.095C373.926 157.727 374.716 160.073 373.892 162.262Z" fill="#5A90C5"/>
<path d="M353.138 168.071L352.225 167.947C352.065 167.926 351.911 167.874 351.772 167.793C351.633 167.713 351.511 167.605 351.413 167.477C351.316 167.349 351.245 167.203 351.204 167.048C351.163 166.892 351.154 166.73 351.176 166.571C351.195 166.41 351.246 166.255 351.326 166.114C351.406 165.974 351.513 165.851 351.642 165.752C351.77 165.653 351.916 165.581 352.072 165.54C352.229 165.498 352.392 165.488 352.552 165.51L353.454 165.634C353.776 165.679 354.067 165.849 354.265 166.106C354.464 166.363 354.553 166.688 354.515 167.01C354.47 167.332 354.3 167.623 354.043 167.822C353.786 168.02 353.461 168.109 353.138 168.071Z" fill="#5A90C5"/>
<path opacity="0.4" d="M353.138 168.071L352.225 167.947C352.065 167.926 351.911 167.874 351.772 167.793C351.633 167.713 351.511 167.605 351.413 167.477C351.316 167.349 351.245 167.203 351.204 167.048C351.163 166.892 351.154 166.73 351.176 166.571C351.195 166.41 351.246 166.255 351.326 166.114C351.406 165.974 351.513 165.851 351.642 165.752C351.77 165.653 351.916 165.581 352.072 165.54C352.229 165.498 352.392 165.488 352.552 165.51L353.454 165.634C353.776 165.679 354.067 165.849 354.265 166.106C354.464 166.363 354.553 166.688 354.515 167.01C354.47 167.332 354.3 167.623 354.043 167.822C353.786 168.02 353.461 168.109 353.138 168.071Z" fill="black"/>
<path d="M365.329 179.182L358.629 185.758L361.314 193.834L370.631 183.57L365.329 179.182Z" fill="#5A90C5"/>
<path d="M355.643 180.558L356.726 185.622L353.263 192.785L351.098 183.479L355.643 180.558Z" fill="#5A90C5"/>
<path d="M363.898 184.889L367.79 170.643C367.79 170.643 365.906 167.101 366.312 166.356C366.718 165.612 368.749 156.046 370.193 155.009C371.636 153.971 377.581 155.742 378.179 156.712C378.777 157.682 372.482 170.643 372.482 170.643L370.226 186.085L363.898 184.889Z" fill="#E4897B"/>
<path d="M386.91 187.247C397.626 198.211 376.16 223.049 363.854 221.989C351.547 220.928 364.169 175.899 364.169 175.899L372.065 177.196C372.065 177.196 369.302 196.688 370.17 198.211C371.039 199.733 383.357 183.603 386.91 187.247Z" fill="#5A90C5"/>
<path opacity="0.2" d="M386.91 187.247C397.626 198.211 376.16 223.049 363.854 221.989C351.547 220.928 364.169 175.899 364.169 175.899L372.065 177.196C372.065 177.196 369.302 196.688 370.17 198.211C371.039 199.733 383.357 183.603 386.91 187.247Z" fill="black"/>
<path d="M363.56 174.489L362.398 178.211L373.374 179.181V175.933L363.56 174.489Z" fill="#5A90C5"/>
<path opacity="0.6" d="M346.921 203.941H342.477C341.985 203.941 341.586 204.34 341.586 204.832V213.225C341.586 213.717 341.985 214.116 342.477 214.116H346.921C347.413 214.116 347.812 213.717 347.812 213.225V204.832C347.812 204.34 347.413 203.941 346.921 203.941Z" fill="white"/>
<path opacity="0.2" d="M347.01 204.618H341.957V211.533H347.01V204.618Z" fill="black"/>
<path d="M345.16 201.493H344.043V205.565H345.16V201.493Z" fill="#263238"/>
<path d="M252.341 376.941C253.466 376.418 254.679 376.108 255.917 376.028C255.917 376.028 260.203 373.512 264.445 363.71H269.216C270.025 363.716 270.813 363.971 271.471 364.442C272.129 364.912 272.626 365.575 272.893 366.338C272.973 366.548 273.019 366.769 273.029 366.992C272.972 368.146 272.848 369.294 272.656 370.433C271.958 374.246 271.028 378.013 269.87 381.713L269.058 381.51L270.525 374.381C271.021 371.967 268.472 374.302 267.299 376.738C266.125 379.175 264.309 381.645 259.03 380.438C252.883 378.927 250.412 378.047 252.341 376.941Z" fill="#5A90C5"/>
<path d="M265.322 361.149C265.322 361.149 259.355 373.625 255.926 376.027C255.926 376.027 260.528 378.768 265.322 372.643C271.515 364.747 273.037 366.947 273.037 366.947C272.908 365.585 272.655 364.237 272.282 362.92C271.357 360.393 265.322 361.149 265.322 361.149Z" fill="#E4897B"/>
<path d="M318.024 406.664C318.998 405.895 320.102 405.307 321.284 404.926C321.284 404.926 324.848 401.463 326.642 390.939L331.278 389.811C332.065 389.63 332.888 389.695 333.637 389.998C334.385 390.301 335.023 390.826 335.463 391.503C335.589 391.691 335.688 391.896 335.756 392.112C335.981 393.23 336.136 394.36 336.218 395.496C336.435 399.352 336.416 403.217 336.162 407.07H335.327L335.068 399.805C334.966 397.335 333.06 400.211 332.485 402.862C331.909 405.513 330.748 408.322 325.333 408.401C319.028 408.468 316.411 408.198 318.024 406.664Z" fill="#5A90C5"/>
<path d="M326.878 388.244C326.878 388.244 324.047 401.78 321.238 404.927C321.238 404.927 326.359 406.506 329.563 399.434C333.714 390.297 335.71 392.079 335.71 392.079C335.265 390.786 334.702 389.536 334.03 388.345C332.563 386.089 326.878 388.244 326.878 388.244Z" fill="#E4897B"/>
<path d="M431.757 115.225H392.379C389.221 115.225 386.66 117.785 386.66 120.944V137.784C386.66 140.943 389.221 143.503 392.379 143.503H431.757C434.916 143.503 437.476 140.943 437.476 137.784V120.944C437.476 117.785 434.916 115.225 431.757 115.225Z" fill="#5A90C5"/>
<path d="M400.277 140.278L388.41 156.408L407.552 141.36L400.277 140.278Z" fill="#5A90C5"/>
<path d="M400.714 129.358C400.716 129.689 400.62 130.014 400.437 130.29C400.255 130.566 399.994 130.782 399.688 130.91C399.383 131.037 399.046 131.071 398.722 131.007C398.397 130.943 398.098 130.784 397.864 130.55C397.63 130.316 397.471 130.017 397.407 129.692C397.342 129.367 397.376 129.031 397.504 128.725C397.632 128.42 397.848 128.159 398.124 127.977C398.4 127.794 398.725 127.698 399.056 127.7C399.495 127.7 399.917 127.875 400.228 128.186C400.539 128.497 400.714 128.918 400.714 129.358Z" fill="white"/>
<path d="M409.39 129.358C409.392 129.689 409.296 130.014 409.113 130.29C408.93 130.566 408.67 130.782 408.364 130.91C408.059 131.037 407.722 131.071 407.397 131.007C407.072 130.943 406.774 130.784 406.54 130.55C406.306 130.316 406.146 130.017 406.082 129.692C406.018 129.367 406.052 129.031 406.18 128.725C406.308 128.42 406.523 128.159 406.8 127.977C407.076 127.794 407.4 127.698 407.731 127.7C408.171 127.7 408.593 127.875 408.904 128.186C409.215 128.497 409.39 128.918 409.39 129.358Z" fill="white"/>
<path d="M418.061 129.358C418.064 129.689 417.967 130.014 417.785 130.29C417.602 130.566 417.342 130.782 417.036 130.91C416.731 131.037 416.394 131.071 416.069 131.007C415.744 130.943 415.446 130.784 415.212 130.55C414.977 130.316 414.818 130.017 414.754 129.692C414.69 129.367 414.724 129.031 414.852 128.725C414.98 128.42 415.195 128.159 415.472 127.977C415.748 127.794 416.072 127.698 416.403 127.7C416.843 127.7 417.265 127.875 417.576 128.186C417.887 128.497 418.061 128.918 418.061 129.358Z" fill="white"/>
<path d="M426.733 129.358C426.736 129.689 426.639 130.014 426.457 130.29C426.274 130.566 426.014 130.782 425.708 130.91C425.403 131.037 425.066 131.071 424.741 131.007C424.416 130.943 424.118 130.784 423.883 130.55C423.649 130.316 423.49 130.017 423.426 129.692C423.362 129.367 423.396 129.031 423.524 128.725C423.652 128.42 423.867 128.159 424.143 127.977C424.42 127.794 424.744 127.698 425.075 127.7C425.515 127.7 425.937 127.875 426.248 128.186C426.559 128.497 426.733 128.918 426.733 129.358Z" fill="white"/>
<path d="M283.89 101.889L255.796 86.7558C255.039 86.3481 254.095 86.6312 253.688 87.388L244.722 104.032C244.314 104.789 244.597 105.733 245.354 106.141L273.448 121.274C274.205 121.682 275.149 121.399 275.557 120.642L284.523 103.998C284.93 103.241 284.647 102.297 283.89 101.889Z" fill="#5A90C5"/>
<path opacity="0.7" d="M283.89 101.889L255.796 86.7558C255.039 86.3481 254.095 86.6312 253.688 87.388L244.722 104.032C244.314 104.789 244.597 105.733 245.354 106.141L273.448 121.274C274.205 121.682 275.149 121.399 275.557 120.642L284.523 103.998C284.93 103.241 284.647 102.297 283.89 101.889Z" fill="white"/>
<path opacity="0.2" d="M252.957 88.762L261.699 105.174C262.035 105.799 262.548 106.311 263.175 106.644C263.801 106.978 264.512 107.118 265.218 107.047L283.503 105.242L264.891 107.983C264.078 108.103 263.247 107.957 262.524 107.567C261.8 107.177 261.222 106.563 260.876 105.817L252.957 88.762Z" fill="black"/>
<path d="M231.625 85.7275C231.93 79.4558 236.577 66.811 242.228 62.942C247.88 59.073 244.157 64.431 244.157 64.431C244.157 64.431 249.515 59.2196 252.335 59.3776C255.155 59.5355 252.335 62.7615 252.335 62.7615C252.335 62.7615 258.144 59.1858 260.818 59.3776C263.491 59.5693 260.818 62.66 260.818 62.66C260.818 62.66 265.578 59.276 267.507 60.8665C269.436 62.457 242.815 80.0424 239.848 87.1939C236.882 94.3453 231.321 92.0555 231.625 85.7275Z" fill="#5A90C5"/>
<path opacity="0.4" d="M231.625 85.7275C231.93 79.4558 236.577 66.811 242.228 62.942C247.88 59.073 244.157 64.431 244.157 64.431C244.157 64.431 249.515 59.2196 252.335 59.3776C255.155 59.5355 252.335 62.7615 252.335 62.7615C252.335 62.7615 258.144 59.1858 260.818 59.3776C263.491 59.5693 260.818 62.66 260.818 62.66C260.818 62.66 265.578 59.276 267.507 60.8665C269.436 62.457 242.815 80.0424 239.848 87.1939C236.882 94.3453 231.321 92.0555 231.625 85.7275Z" fill="white"/>
<path d="M254.502 84.7798L258.055 87.0358C258.112 87.0705 258.154 87.1232 258.177 87.1853C258.199 87.2474 258.2 87.3152 258.179 87.3778C258.158 87.4404 258.117 87.4942 258.062 87.5304C258.007 87.5666 257.941 87.5831 257.875 87.5772L254.141 87.2839L254.457 90.149C254.466 90.2166 254.453 90.2853 254.42 90.3449C254.387 90.4045 254.336 90.4518 254.274 90.4797C254.211 90.5076 254.142 90.5147 254.075 90.4998C254.009 90.4849 253.949 90.4489 253.904 90.3972L251.75 87.9833L254.502 84.7798Z" fill="#5A90C5"/>
<path opacity="0.3" d="M254.502 84.7798L258.055 87.0358C258.112 87.0705 258.154 87.1232 258.177 87.1853C258.199 87.2474 258.2 87.3152 258.179 87.3778C258.158 87.4404 258.117 87.4942 258.062 87.5304C258.007 87.5666 257.941 87.5831 257.875 87.5772L254.141 87.2839L254.457 90.149C254.466 90.2166 254.453 90.2853 254.42 90.3449C254.387 90.4045 254.336 90.4518 254.274 90.4797C254.211 90.5076 254.142 90.5147 254.075 90.4998C254.009 90.4849 253.949 90.4489 253.904 90.3972L251.75 87.9833L254.502 84.7798Z" fill="white"/>
<path d="M204.59 70.6572C204.59 70.6572 209.508 67.2732 216.941 69.4615C216.941 69.4615 219.073 79.2864 224.928 82.5575C228.142 84.3511 236.004 84.1931 242.231 82.1853C249.619 79.794 253.229 79.794 254.571 82.5575C255.914 85.3211 254.425 88.1975 248.773 89.5398C243.122 90.8821 238.621 100.696 228.39 100.82C218.16 100.944 212.723 90.6678 215.306 81.6439C212.86 77.0307 209.141 73.2173 204.59 70.6572Z" fill="#5A90C5"/>
<path opacity="0.5" d="M204.59 70.6572C204.59 70.6572 209.508 67.2732 216.941 69.4615C216.941 69.4615 219.073 79.2864 224.928 82.5575C228.142 84.3511 236.004 84.1931 242.231 82.1853C249.619 79.794 253.229 79.794 254.571 82.5575C255.914 85.3211 254.425 88.1975 248.773 89.5398C243.122 90.8821 238.621 100.696 228.39 100.82C218.16 100.944 212.723 90.6678 215.306 81.6439C212.86 77.0307 209.141 73.2173 204.59 70.6572Z" fill="white"/>
<path d="M251.746 84.4192C251.746 84.5196 251.716 84.6178 251.66 84.7012C251.604 84.7847 251.525 84.8498 251.432 84.8882C251.34 84.9266 251.238 84.9367 251.139 84.9171C251.041 84.8975 250.95 84.8491 250.879 84.7781C250.808 84.7072 250.76 84.6167 250.74 84.5183C250.721 84.4198 250.731 84.3177 250.769 84.225C250.808 84.1322 250.873 84.0529 250.956 83.9972C251.04 83.9414 251.138 83.9116 251.238 83.9116C251.373 83.9116 251.502 83.9651 251.597 84.0603C251.692 84.1555 251.746 84.2846 251.746 84.4192Z" fill="#263238"/>
<path d="M226.008 92.6758C219.95 94.3227 206.482 93.8038 201.068 89.6303C195.653 85.4567 201.88 87.3743 201.88 87.3743C201.88 87.3743 195.281 83.8888 194.548 81.159C193.815 78.4293 197.797 80.0987 197.797 80.0987C197.797 80.0987 192.608 75.6883 191.931 73.0939C191.254 70.4995 195.044 72.0787 195.044 72.0787C195.044 72.0787 190.318 68.6045 191.277 66.2695C192.236 63.9346 217.153 83.8324 224.857 84.4528C232.561 85.0732 232.144 91.0064 226.008 92.6758Z" fill="#5A90C5"/>
<path opacity="0.4" d="M226.008 92.6758C219.95 94.3227 206.482 93.8038 201.068 89.6303C195.653 85.4567 201.88 87.3743 201.88 87.3743C201.88 87.3743 195.281 83.8888 194.548 81.159C193.815 78.4293 197.797 80.0987 197.797 80.0987C197.797 80.0987 192.608 75.6883 191.931 73.0939C191.254 70.4995 195.044 72.0787 195.044 72.0787C195.044 72.0787 190.318 68.6045 191.277 66.2695C192.236 63.9346 217.153 83.8324 224.857 84.4528C232.561 85.0732 232.144 91.0064 226.008 92.6758Z" fill="white"/>
<path d="M186.306 65.2318C186.262 65.2428 186.215 65.2428 186.171 65.2318C185.122 64.8595 184.05 64.5099 182.968 64.1827C182.86 64.1489 182.771 64.0744 182.718 63.9753C182.665 63.8762 182.654 63.7603 182.686 63.6526C182.719 63.5455 182.794 63.456 182.893 63.4032C182.992 63.3505 183.108 63.3388 183.216 63.3706C184.344 63.6977 185.393 64.0587 186.453 64.4986C186.548 64.5308 186.627 64.5959 186.678 64.682C186.729 64.7681 186.747 64.8694 186.729 64.9677C186.711 65.066 186.659 65.1546 186.581 65.2175C186.504 65.2805 186.406 65.3135 186.306 65.3107V65.2318Z" fill="#5A90C5"/>
<path d="M118.129 156.791C118.017 156.791 117.91 156.747 117.83 156.669C117.75 156.591 117.703 156.485 117.7 156.374C117.7 156.262 117.744 156.154 117.822 156.074C117.9 155.994 118.006 155.948 118.118 155.945C120.362 155.913 122.599 155.694 124.807 155.291C124.917 155.271 125.031 155.295 125.124 155.358C125.217 155.422 125.281 155.519 125.303 155.629C125.314 155.684 125.315 155.741 125.304 155.796C125.293 155.851 125.271 155.903 125.239 155.949C125.208 155.995 125.167 156.035 125.12 156.065C125.073 156.095 125.02 156.116 124.965 156.125C122.709 156.538 120.422 156.761 118.129 156.791ZM111.361 156.43C109.085 156.187 106.825 155.81 104.593 155.302C104.483 155.278 104.386 155.211 104.325 155.116C104.264 155.02 104.242 154.905 104.266 154.794C104.293 154.686 104.361 154.592 104.456 154.533C104.55 154.474 104.664 154.455 104.774 154.479C106.97 154.973 109.192 155.35 111.429 155.607C111.529 155.623 111.62 155.675 111.686 155.752C111.752 155.829 111.788 155.928 111.788 156.03C111.788 156.131 111.752 156.23 111.686 156.307C111.62 156.384 111.529 156.436 111.429 156.452L111.361 156.43ZM131.405 154.174C131.324 154.174 131.245 154.151 131.177 154.107C131.109 154.063 131.055 154 131.022 153.926C130.998 153.875 130.984 153.82 130.982 153.763C130.979 153.707 130.989 153.651 131.009 153.598C131.029 153.545 131.059 153.497 131.098 153.457C131.137 153.416 131.184 153.384 131.236 153.362C133.285 152.479 135.187 151.288 136.876 149.831C136.963 149.765 137.071 149.735 137.179 149.745C137.287 149.756 137.387 149.808 137.458 149.889C137.53 149.971 137.568 150.077 137.565 150.185C137.561 150.294 137.517 150.397 137.44 150.474C135.683 151.982 133.71 153.218 131.586 154.14C131.524 154.175 131.454 154.194 131.383 154.197L131.405 154.174ZM98.1409 153.407C98.0965 153.418 98.05 153.418 98.0056 153.407C95.8624 152.696 93.7079 151.862 91.6211 150.948C91.5287 150.895 91.4592 150.81 91.4262 150.708C91.3932 150.607 91.3992 150.497 91.4428 150.4C91.4864 150.303 91.5647 150.225 91.6623 150.183C91.7599 150.14 91.8699 150.136 91.9708 150.17C94.0238 151.072 96.1444 151.895 98.2763 152.606C98.3818 152.644 98.4681 152.723 98.5167 152.824C98.5652 152.925 98.572 153.041 98.5357 153.147C98.5038 153.226 98.4491 153.292 98.3786 153.338C98.3081 153.385 98.2253 153.409 98.1409 153.407ZM85.733 147.925C85.6668 147.945 85.5962 147.945 85.53 147.925C83.5109 146.797 81.5482 145.579 79.7208 144.304C79.6756 144.272 79.6372 144.232 79.6076 144.185C79.5781 144.138 79.558 144.086 79.5486 144.032C79.5392 143.977 79.5406 143.922 79.5527 143.868C79.5648 143.814 79.5875 143.763 79.6193 143.717C79.6512 143.672 79.6916 143.634 79.7383 143.604C79.785 143.575 79.8371 143.555 79.8916 143.545C79.946 143.536 80.0018 143.537 80.0557 143.549C80.1097 143.561 80.1607 143.584 80.2059 143.616C82.0106 144.868 83.9395 146.075 85.9473 147.192C85.9959 147.219 86.0386 147.255 86.073 147.299C86.1073 147.342 86.1326 147.393 86.1473 147.446C86.162 147.5 86.1658 147.556 86.1586 147.611C86.1514 147.666 86.1333 147.719 86.1053 147.767C86.0576 147.84 85.9892 147.897 85.9089 147.932C85.8285 147.966 85.7398 147.975 85.6541 147.959L85.733 147.925ZM141.501 145.342C141.435 145.362 141.364 145.362 141.298 145.342C141.249 145.315 141.207 145.278 141.172 145.235C141.138 145.191 141.113 145.141 141.098 145.087C141.083 145.034 141.079 144.978 141.087 144.923C141.094 144.868 141.112 144.814 141.14 144.766C141.49 144.157 141.817 143.526 142.11 142.871C142.738 141.49 143.229 140.051 143.576 138.574C143.606 138.465 143.676 138.371 143.773 138.312C143.869 138.253 143.985 138.234 144.095 138.258C144.204 138.287 144.297 138.358 144.354 138.455C144.411 138.552 144.427 138.668 144.4 138.777C144.032 140.302 143.522 141.79 142.877 143.221C142.573 143.898 142.234 144.563 141.873 145.195C141.825 145.267 141.756 145.323 141.676 145.355C141.595 145.388 141.507 145.395 141.422 145.376L141.501 145.342ZM74.611 140.13C74.5117 140.129 74.4161 140.093 74.3403 140.029C72.6225 138.512 71.013 136.876 69.5238 135.133C69.4459 135.053 69.4023 134.946 69.4023 134.835C69.4023 134.723 69.4459 134.616 69.5238 134.536C69.6019 134.458 69.7073 134.415 69.817 134.415C69.9268 134.415 70.0322 134.458 70.1103 134.536C71.5726 136.241 73.1519 137.843 74.8366 139.33C74.9145 139.41 74.958 139.517 74.958 139.628C74.958 139.74 74.9145 139.847 74.8366 139.927C74.8087 139.988 74.7664 140.042 74.7134 140.083C74.6603 140.124 74.5981 140.152 74.5321 140.164L74.611 140.13ZM144.75 132.302C144.694 132.302 144.639 132.291 144.587 132.269C144.536 132.248 144.489 132.216 144.45 132.176C144.412 132.136 144.381 132.089 144.361 132.037C144.34 131.985 144.331 131.929 144.332 131.874C144.316 129.63 144.108 127.393 143.712 125.185C143.692 125.074 143.716 124.96 143.78 124.867C143.843 124.774 143.94 124.71 144.05 124.688C144.162 124.672 144.276 124.699 144.368 124.764C144.461 124.829 144.525 124.927 144.547 125.038C144.952 127.294 145.164 129.581 145.178 131.874C145.178 131.987 145.133 132.096 145.053 132.177C144.972 132.257 144.863 132.302 144.75 132.302ZM142.494 118.924C142.402 118.923 142.314 118.893 142.241 118.838C142.168 118.784 142.114 118.707 142.088 118.62C141.512 116.646 140.802 114.548 139.933 112.201C139.912 112.149 139.901 112.093 139.902 112.036C139.903 111.979 139.915 111.923 139.938 111.872C139.962 111.82 139.995 111.773 140.037 111.735C140.079 111.697 140.128 111.667 140.181 111.649C140.286 111.612 140.401 111.617 140.502 111.663C140.603 111.71 140.682 111.793 140.723 111.897C141.603 114.266 142.313 116.409 142.9 118.371C142.932 118.479 142.92 118.595 142.867 118.694C142.814 118.793 142.725 118.868 142.618 118.902L142.494 118.924ZM137.824 106.121C137.745 106.122 137.669 106.1 137.603 106.058C137.537 106.016 137.484 105.956 137.451 105.885C136.73 104.08 135.748 102.004 134.722 99.8047V99.6919C134.692 99.5936 134.699 99.488 134.741 99.3943C134.783 99.3006 134.857 99.225 134.95 99.1813C135.043 99.1376 135.148 99.1287 135.247 99.1562C135.346 99.1836 135.432 99.2456 135.489 99.3309V99.4437C136.527 101.7 137.497 103.741 138.219 105.512C138.264 105.619 138.266 105.739 138.224 105.846C138.182 105.954 138.099 106.041 137.993 106.088L137.824 106.121ZM132.184 93.7135C132.101 93.7162 132.019 93.6939 131.948 93.6497C131.878 93.6055 131.823 93.5413 131.789 93.4654C130.774 91.1079 129.962 89.0211 129.319 87.0922C129.282 86.986 129.289 86.8697 129.338 86.7685C129.386 86.6673 129.473 86.5891 129.578 86.5508C129.686 86.515 129.803 86.5235 129.905 86.5742C130.006 86.625 130.084 86.7139 130.12 86.8215C130.751 88.7278 131.552 90.792 132.567 93.127C132.589 93.178 132.601 93.2329 132.602 93.2886C132.602 93.3442 132.592 93.3993 132.571 93.4508C132.55 93.5023 132.519 93.5491 132.479 93.5884C132.44 93.6277 132.393 93.6587 132.342 93.6797C132.304 93.7197 132.258 93.7506 132.206 93.7699L132.184 93.7135ZM128.055 80.7867C127.954 80.7854 127.857 80.7484 127.781 80.6824C127.704 80.6163 127.654 80.5255 127.638 80.4258C127.444 79.2172 127.346 77.9951 127.345 76.7711C127.335 75.6775 127.434 74.5856 127.638 73.5112C127.67 73.4111 127.739 73.3265 127.83 73.2735C127.92 73.2204 128.028 73.2027 128.131 73.2236C128.234 73.2445 128.326 73.3026 128.389 73.3868C128.452 73.4711 128.482 73.5756 128.473 73.6804C128.277 74.6989 128.183 75.7341 128.191 76.7711C128.195 77.9534 128.289 79.1337 128.473 80.3017C128.486 80.4117 128.458 80.5228 128.393 80.6128C128.328 80.7027 128.232 80.7648 128.123 80.7867H128.055ZM130.999 67.9727C130.901 67.9754 130.805 67.9435 130.729 67.8825C130.651 67.8025 130.607 67.6952 130.607 67.5836C130.607 67.4719 130.651 67.3647 130.729 67.2847C132.243 65.5155 134.085 64.0561 136.154 62.987C136.253 62.9344 136.369 62.9227 136.476 62.9543C136.584 62.9859 136.675 63.0584 136.73 63.1562C136.778 63.2571 136.787 63.3727 136.753 63.4796C136.72 63.5865 136.647 63.6766 136.549 63.7315C134.579 64.7503 132.825 66.1407 131.383 67.8261C131.346 67.8884 131.293 67.9399 131.229 67.9756C131.166 68.0112 131.095 68.0296 131.022 68.0291L130.999 67.9727ZM176.48 62.4456H176.39C174.224 61.9944 171.979 61.6109 169.712 61.3176C169.657 61.3107 169.604 61.2929 169.556 61.2652C169.508 61.2375 169.466 61.2005 169.432 61.1564C169.399 61.1123 169.374 61.062 169.36 61.0083C169.346 60.9546 169.343 60.8987 169.351 60.8438C169.358 60.7888 169.376 60.7357 169.404 60.6877C169.431 60.6396 169.468 60.5976 169.512 60.564C169.556 60.5304 169.607 60.5059 169.66 60.492C169.714 60.478 169.77 60.475 169.825 60.4829C172.081 60.7762 174.337 61.1597 176.593 61.6109C176.694 61.6342 176.783 61.6934 176.844 61.7775C176.905 61.8617 176.933 61.965 176.923 62.0684C176.914 62.1718 176.867 62.2681 176.792 62.3396C176.716 62.411 176.618 62.4527 176.514 62.4569L176.48 62.4456ZM142.64 61.4868C142.585 61.4927 142.53 61.4878 142.477 61.4723C142.424 61.4568 142.375 61.431 142.332 61.3965C142.289 61.3619 142.253 61.3192 142.227 61.2708C142.2 61.2225 142.184 61.1694 142.178 61.1146C142.172 61.0597 142.177 61.0043 142.192 60.9514C142.208 60.8985 142.234 60.8492 142.268 60.8062C142.303 60.7633 142.345 60.7276 142.394 60.7011C142.442 60.6747 142.495 60.658 142.55 60.6521C144.778 60.1523 147.04 59.8242 149.318 59.6707C149.43 59.6645 149.54 59.7023 149.624 59.7761C149.708 59.8499 149.76 59.9538 149.769 60.0655C149.774 60.1213 149.767 60.1773 149.75 60.2305C149.732 60.2836 149.704 60.3326 149.667 60.3747C149.63 60.4168 149.586 60.4511 149.535 60.4755C149.485 60.4999 149.43 60.5139 149.374 60.5167C147.134 60.6616 144.909 60.9821 142.719 61.4755L142.64 61.4868ZM162.944 60.6972C160.981 60.5618 158.646 60.4152 156.176 60.3701C156.064 60.3671 155.958 60.3207 155.88 60.2406C155.802 60.1605 155.759 60.0532 155.759 59.9414C155.759 59.8857 155.77 59.8305 155.792 59.7791C155.813 59.7277 155.845 59.6812 155.885 59.6423C155.925 59.6034 155.972 59.5729 156.024 59.5526C156.076 59.5323 156.132 59.5226 156.187 59.5241C158.68 59.5805 161.038 59.7158 162.955 59.8512C163.011 59.854 163.066 59.8681 163.116 59.8925C163.167 59.9168 163.212 59.9511 163.248 59.9932C163.285 60.0353 163.313 60.0843 163.331 60.1375C163.348 60.1906 163.355 60.2467 163.35 60.3024C163.358 60.4042 163.33 60.5057 163.27 60.5884C163.21 60.6711 163.122 60.7297 163.023 60.7536L162.944 60.6972Z" fill="#5A90C5"/>
<path d="M65.8358 129.719C65.7601 129.721 65.6855 129.701 65.62 129.664C65.5544 129.626 65.5003 129.571 65.4635 129.505C64.8931 128.515 64.3845 127.49 63.9407 126.437C63.9186 126.386 63.9069 126.331 63.9063 126.275C63.9057 126.22 63.9162 126.164 63.9372 126.113C63.9582 126.061 63.9893 126.015 64.0287 125.975C64.068 125.936 64.1148 125.905 64.1663 125.884C64.2697 125.842 64.3852 125.843 64.4884 125.885C64.5916 125.927 64.6743 126.008 64.7191 126.11C65.1546 127.13 65.648 128.124 66.1967 129.088C66.2389 129.15 66.2626 129.224 66.2654 129.299C66.2681 129.375 66.2496 129.45 66.2121 129.515C66.1746 129.581 66.1195 129.635 66.053 129.671C65.9865 129.707 65.9113 129.724 65.8358 129.719Z" fill="#5A90C5"/>
<path d="M202.83 218.876H160.012V227.652H202.83V218.876Z" fill="white"/>
<path opacity="0.1" d="M202.83 218.876H160.012V227.652H202.83V218.876Z" fill="black"/>
<path opacity="0.1" d="M178.048 218.876H160.012V227.652H178.048V218.876Z" fill="black"/>
<path opacity="0.1" d="M160.012 220.139H198.127L160.012 221.222V220.139Z" fill="black"/>
<path opacity="0.1" d="M202.828 221.662L169.789 222.486H202.828V221.662Z" fill="black"/>
<path opacity="0.1" d="M161.754 224.121L178.042 223.456L201.989 224.121L178.042 224.494L161.754 224.121Z" fill="black"/>
<path opacity="0.1" d="M160.012 225.982H188.234L160.012 226.648V225.982Z" fill="black"/>
<path opacity="0.1" d="M202.759 226.648L183.91 226.998H202.827L202.759 226.648Z" fill="black"/>
<path d="M196.873 210.1H154.055V218.876H196.873V210.1Z" fill="white"/>
<path opacity="0.1" d="M196.873 210.1H154.055V218.876H196.873V210.1Z" fill="black"/>
<path opacity="0.1" d="M172.091 210.1H154.055V218.876H172.091V210.1Z" fill="black"/>
<path opacity="0.1" d="M154.055 211.364H192.17L154.055 212.435V211.364Z" fill="black"/>
<path opacity="0.1" d="M196.875 212.886L163.836 213.71H196.875V212.886Z" fill="black"/>
<path opacity="0.1" d="M155.793 215.346L172.081 214.669L196.028 215.346L172.081 215.718L155.793 215.346Z" fill="black"/>
<path opacity="0.1" d="M154.055 217.195H182.277L154.055 217.872V217.195Z" fill="black"/>
<path opacity="0.1" d="M196.802 217.872L177.953 218.222H196.87L196.802 217.872Z" fill="black"/>
<path d="M201.756 201.313H158.938V210.089H201.756V201.313Z" fill="white"/>
<path opacity="0.1" d="M201.756 201.313H158.938V210.089H201.756V201.313Z" fill="black"/>
<path opacity="0.1" d="M176.974 201.313H158.938V210.089H176.974V201.313Z" fill="black"/>
<path opacity="0.1" d="M158.938 202.576H197.052L158.938 203.659V202.576Z" fill="black"/>
<path opacity="0.1" d="M201.758 204.099L168.719 204.923H201.758V204.099Z" fill="black"/>
<path opacity="0.1" d="M160.688 206.558L176.976 205.893L200.923 206.558L176.976 206.931L160.688 206.558Z" fill="black"/>
<path opacity="0.1" d="M158.938 208.419H187.16L158.938 209.085V208.419Z" fill="black"/>
<path opacity="0.1" d="M201.696 209.085L182.848 209.435H201.753L201.696 209.085Z" fill="black"/>
<path d="M230.285 227.471L231.391 223.264H277.142L298.202 225.373L299.002 227.471H230.285Z" fill="#263238"/>
<path opacity="0.4" d="M277.142 223.264V227.471H230.285L231.391 223.264H277.142Z" fill="black"/>
<path d="M267.945 203.129C268.007 203.639 267.958 204.157 267.803 204.646C267.647 205.136 267.389 205.587 267.045 205.968C266.701 206.35 266.279 206.653 265.808 206.858C265.336 207.063 264.827 207.165 264.313 207.156H194.242C193.147 207.132 192.097 206.71 191.29 205.969C190.482 205.228 189.972 204.219 189.854 203.129L185.692 158.269C185.647 157.831 185.678 157.388 185.782 156.96C185.977 156.173 186.433 155.474 187.077 154.98C187.72 154.486 188.513 154.226 189.324 154.242H259.44C260.536 154.266 261.585 154.688 262.393 155.429C263.2 156.17 263.711 157.179 263.828 158.269L267.945 203.129Z" fill="#263238"/>
<path opacity="0.4" d="M264.065 207.156H194.242C193.147 207.132 192.097 206.71 191.29 205.969C190.482 205.228 189.972 204.219 189.854 203.129L185.692 158.269C185.647 157.831 185.678 157.388 185.782 156.96H255.605C256.701 156.984 257.75 157.406 258.558 158.147C259.365 158.888 259.875 159.898 259.993 160.987L264.155 205.847C264.2 206.286 264.17 206.728 264.065 207.156Z" fill="black"/>
<path d="M215.923 179.644H230.418L226.56 221.143L249.481 224.584V227.471H201.203V224.584L211.096 221.143L215.923 179.644Z" fill="#263238"/>
<path opacity="0.1" d="M230.412 179.644L219.674 226.817L211.09 226.558L215.918 179.644H230.412Z" fill="white"/>
<path d="M230.35 408.412H223.447L211.027 235.548H220.198L230.35 408.412Z" fill="#263238"/>
<path opacity="0.4" d="M230.361 408.412H223.447L211.636 244.143L211.027 235.83H220.198L220.694 244.143L230.361 408.412Z" fill="white"/>
<path opacity="0.2" d="M220.694 243.726H211.636L211.027 235.83H220.198L220.694 243.726Z" fill="black"/>
<path d="M281.063 408.412H274.159L273.031 235.548H282.191L281.063 408.412Z" fill="#263238"/>
<path opacity="0.5" d="M282.202 235.83L282.021 263.725L281.074 408.412H274.159L273.212 263.725L273.031 235.83H282.202Z" fill="white"/>
<path opacity="0.2" d="M282.202 235.83L282.021 264.029H273.212L273.031 235.83H282.202Z" fill="black"/>
<path d="M354.432 408.412H347.529L335.109 235.548H344.28L354.432 408.412Z" fill="#263238"/>
<path opacity="0.5" d="M354.443 408.412H347.529L335.719 244.143L335.109 235.83H344.28L344.776 244.143L354.443 408.412Z" fill="white"/>
<path opacity="0.2" d="M344.776 243.726H335.719L335.109 235.83H344.28L344.776 243.726Z" fill="black"/>
<path d="M151.298 408.412H144.395L154.546 235.548H163.717L151.298 408.412Z" fill="#263238"/>
<path opacity="0.5" d="M163.717 235.83L163.108 244.143L151.298 408.412H144.395L154.05 244.143L154.546 235.83H163.717Z" fill="white"/>
<path opacity="0.2" d="M154.551 235.83H163.722L163.112 243.726H154.055L154.551 235.83Z" fill="black"/>
<path d="M147.281 231.239H351.539V237.454C351.539 237.774 351.476 238.091 351.354 238.386C351.232 238.682 351.052 238.951 350.826 239.177C350.6 239.403 350.331 239.583 350.035 239.705C349.74 239.827 349.423 239.89 349.103 239.89H149.718C149.072 239.89 148.452 239.634 147.995 239.177C147.538 238.72 147.281 238.1 147.281 237.454V231.239Z" fill="#5A90C5"/>
<path opacity="0.6" d="M147.281 231.239H351.539V237.454C351.539 237.774 351.476 238.091 351.354 238.386C351.232 238.682 351.052 238.951 350.826 239.177C350.6 239.403 350.331 239.583 350.035 239.705C349.74 239.827 349.423 239.89 349.103 239.89H149.718C149.072 239.89 148.452 239.634 147.995 239.177C147.538 238.72 147.281 238.1 147.281 237.454V231.239Z" fill="white"/>
<path opacity="0.2" d="M351.539 231.228H147.281V235.559H351.539V231.228Z" fill="black"/>
<path d="M355.83 232.367H142.999C142.353 232.367 141.733 232.11 141.276 231.653C140.819 231.196 140.563 230.576 140.563 229.93C140.562 229.283 140.819 228.662 141.275 228.203C141.732 227.745 142.352 227.485 142.999 227.482H355.83C356.477 227.485 357.097 227.745 357.554 228.203C358.01 228.662 358.266 229.283 358.266 229.93C358.266 230.576 358.01 231.196 357.553 231.653C357.096 232.11 356.476 232.367 355.83 232.367Z" fill="#5A90C5"/>
<path opacity="0.6" d="M355.83 232.367H142.999C142.353 232.367 141.733 232.11 141.276 231.653C140.819 231.196 140.563 230.576 140.563 229.93C140.562 229.283 140.819 228.662 141.275 228.203C141.732 227.745 142.352 227.485 142.999 227.482H355.83C356.477 227.485 357.097 227.745 357.554 228.203C358.01 228.662 358.266 229.283 358.266 229.93C358.266 230.576 358.01 231.196 357.553 231.653C357.096 232.11 356.476 232.367 355.83 232.367Z" fill="white"/>
<path d="M305.48 219.959L308.097 216.033C308.355 215.648 308.704 215.332 309.114 215.113C309.523 214.895 309.98 214.781 310.444 214.781H313.76C314.035 214.782 314.309 214.824 314.572 214.905L326.405 218.492C327.077 218.693 327.649 219.14 328.006 219.744L329.71 222.598L305.48 219.959Z" fill="#5A90C5"/>
<path opacity="0.2" d="M329.705 222.598L312.458 220.726L305.453 219.959L308.07 216.033C308.328 215.648 308.677 215.332 309.086 215.113C309.496 214.895 309.952 214.781 310.416 214.781H313.733C314.012 214.783 314.289 214.825 314.556 214.905L314.815 214.984L326.377 218.492C327.054 218.692 327.63 219.139 327.99 219.744L329.705 222.598Z" fill="black"/>
<path opacity="0.2" d="M329.708 222.598L312.461 220.726L314.818 214.984L326.38 218.492C327.057 218.692 327.633 219.139 327.993 219.745L329.708 222.598Z" fill="black"/>
<path d="M337.898 227.099V227.471H301.328L302.682 222.181C302.933 221.209 303.5 220.349 304.295 219.736C305.09 219.123 306.066 218.793 307.07 218.797H323.29C323.829 218.794 324.364 218.89 324.869 219.079L326.9 219.835L334.954 222.835C335.823 223.157 336.572 223.739 337.099 224.502C337.625 225.265 337.904 226.172 337.898 227.099Z" fill="#5A90C5"/>
<path opacity="0.2" d="M337.896 227.099V227.471H322.883L323.684 221.752C323.735 221.398 323.865 221.059 324.065 220.761C324.264 220.464 324.528 220.214 324.836 220.032C325.144 219.849 325.489 219.737 325.846 219.705C326.203 219.673 326.563 219.721 326.898 219.846L334.952 222.847C335.82 223.168 336.568 223.748 337.094 224.509C337.621 225.27 337.901 226.174 337.896 227.099Z" fill="black"/>
<path d="M325.223 223.591L330.005 209.254C330.052 209.108 330.13 208.974 330.234 208.861C330.338 208.749 330.466 208.66 330.608 208.602C330.75 208.544 330.903 208.518 331.056 208.525C331.209 208.533 331.359 208.574 331.494 208.645C331.702 208.764 331.867 208.947 331.964 209.166C332.062 209.385 332.087 209.629 332.036 209.863L328.009 225.159C328.009 225.159 325.335 226.242 325.223 223.591Z" fill="#263238"/>
<path opacity="0.2" d="M305.48 226.287H303.359L303.765 224.2H305.886L305.48 226.287Z" fill="black"/>
<path opacity="0.2" d="M308.636 226.208H306.516L306.922 224.121H309.042L308.636 226.208Z" fill="black"/>
</svg>
