<svg width="80" height="80" viewBox="0 0 80 80" fill="none" xmlns="http://www.w3.org/2000/svg">
<path d="M48.3345 41.6666C48.3345 46.269 44.6038 50 40.0012 50C35.3988 50 31.668 46.269 31.668 41.6666C31.668 37.0643 35.3988 33.3333 40.0012 33.3333C44.6038 33.3333 48.3345 37.0643 48.3345 41.6666Z" stroke="#5A90C5" stroke-width="5" stroke-linejoin="round"/>
<path d="M39.9999 10C47.3639 10 53.3269 16.3913 53.3269 23.7551C54.3942 23.4798 55.5132 23.3333 56.6665 23.3333C64.0305 23.3333 69.9999 29.3029 69.9999 36.6667C69.9999 41.988 66.8825 46.5817 62.3742 48.72C64.0239 50.9393 64.9999 53.689 64.9999 56.6667C64.9999 64.0303 59.0305 70 51.6665 70C46.6465 70 42.2745 67.2257 39.9999 63.1267C37.7255 67.2257 33.3535 70 28.3333 70C20.9695 70 15 64.0303 15 56.6667C15 53.689 15.9761 50.9393 17.6258 48.72C13.1175 46.5817 10 41.988 10 36.6667C10 29.3029 15.9695 23.3333 23.3333 23.3333C24.4867 23.3333 25.6058 23.4798 26.6732 23.7551C26.6732 16.3913 32.6362 10 39.9999 10Z" stroke="#5A90C5" stroke-width="5" stroke-linejoin="round"/>
</svg>
