<svg width="1688" height="1272" viewBox="0 0 1688 1272" fill="none" xmlns="http://www.w3.org/2000/svg">
<rect x="52" y="1187" width="1512" height="85" fill="url(#paint0_linear_5360_1068)"/>
<rect width="1512" height="948" transform="translate(52 239)" fill="#DBEAF5"/>
<path d="M478.243 232.414C478.243 355.25 373.424 454.828 244.122 454.828C114.82 454.828 10 355.25 10 232.414C10 109.578 114.82 10 244.122 10C373.424 10 478.243 109.578 478.243 232.414Z" fill="white"/>
<path d="M869.387 437.41C869.387 580.225 747.518 696 597.185 696C446.852 696 324.983 580.225 324.983 437.41C324.983 294.595 446.852 178.82 597.185 178.82C747.518 178.82 869.387 294.595 869.387 437.41Z" fill="white"/>
<path d="M1233.26 266.357C1233.26 389.193 1128.44 488.771 999.141 488.771C869.839 488.771 765.019 389.193 765.019 266.357C765.019 143.521 869.839 43.9427 999.141 43.9427C1128.44 43.9427 1233.26 143.521 1233.26 266.357Z" fill="white"/>
<path d="M1678 424.905C1678 572.16 1552.34 691.534 1397.34 691.534C1242.33 691.534 1116.67 572.16 1116.67 424.905C1116.67 277.65 1242.33 158.276 1397.34 158.276C1552.34 158.276 1678 277.65 1678 424.905Z" fill="white"/>
<path d="M244.122 5C363.764 5.00015 463.209 88.6785 480.561 198.224C516.029 182.56 555.55 173.82 597.185 173.82C659.602 173.82 717.267 193.46 763.652 226.629C783.424 119.814 881.523 38.9425 999.141 38.9424C1108.71 38.9424 1201.35 109.128 1229.49 205.09C1276.64 172.489 1334.66 153.276 1397.34 153.276C1554.86 153.276 1683 274.65 1683 424.905C1683 575.16 1554.86 696.534 1397.34 696.534C1254.25 696.534 1135.41 596.39 1114.83 465.423C1080.52 483.491 1041.07 493.771 999.141 493.771C953.049 493.77 909.956 481.351 873.398 459.818C861.433 595.104 742.121 701 597.185 701C448.077 701 326.089 588.921 320.206 448.066C296.295 455.695 270.707 459.828 244.122 459.828C112.304 459.828 5 358.25 5 232.414C5 106.578 112.304 5 244.122 5Z" stroke="#5A90C5" stroke-opacity="0.2" stroke-width="10"/>
<rect x="1564" y="868" width="1512" height="630" transform="rotate(180 1564 868)" fill="url(#paint1_linear_5360_1068)"/>
<path d="M1011.7 335.49C1011.7 335.49 941.312 278.006 849.764 303.496C758.215 328.987 719.887 407.79 667.388 462.069C639.888 490.458 599.274 500.918 566.606 522.774C462.159 592.651 477.65 749.766 558.17 809.03C627.894 860.333 715.01 865.701 828.399 827.864C941.788 790.027 1022.91 767.282 1093.21 658.893C1163.52 550.504 1098.4 413.511 1011.7 335.49Z" fill="#5A90C5"/>
<path opacity="0.7" d="M1011.7 335.49C1011.7 335.49 941.312 278.006 849.764 303.496C758.215 328.987 719.887 407.79 667.388 462.069C639.888 490.458 599.274 500.918 566.606 522.774C462.159 592.651 477.65 749.766 558.17 809.03C627.894 860.333 715.01 865.701 828.399 827.864C941.788 790.027 1022.91 767.282 1093.21 658.893C1163.52 550.504 1098.4 413.511 1011.7 335.49Z" fill="white"/>
<path d="M1025.14 921.023H577.293L622.078 856.606H980.358L1025.14 921.023Z" fill="#263238" stroke="#263238" stroke-linecap="round" stroke-linejoin="round"/>
<path d="M1040.7 834.49C1040.7 834.49 995.39 765.395 1002.14 749.536C1008.89 733.677 1032.81 760.87 1032.81 760.87C1032.81 760.87 997.691 667.988 1021.48 647.589C1045.27 627.19 1053.2 731.423 1053.2 731.423C1053.2 731.423 1074.67 671.377 1091.71 694.03C1108.75 716.684 1065.64 764.26 1065.64 764.26C1065.64 764.26 1095.08 765.395 1087.11 784.659C1079.13 803.922 1057.66 824.306 1057.66 824.306L1040.7 834.49Z" fill="#5A90C5"/>
<path d="M1028.21 818.631C1028.21 818.631 1001.04 780.119 1014.63 772.189C1028.21 764.26 1035.01 788.048 1035.01 788.048C1035.01 788.048 1036.14 683.846 1057.68 691.776C1079.21 699.705 1071.27 763.125 1071.27 763.125C1071.27 763.125 1098.44 745.012 1097.34 771.054C1096.24 797.097 1059.95 819.796 1059.95 819.796" stroke="#263238" stroke-linecap="round" stroke-linejoin="round"/>
<path d="M1053.15 820.901L1029.36 794.843" stroke="#263238" stroke-linecap="round" stroke-linejoin="round"/>
<path d="M1054.28 833.355L1053.15 768.8" stroke="#263238" stroke-linecap="round" stroke-linejoin="round"/>
<path d="M1055.42 811.836L1076.94 783.524" stroke="#263238" stroke-linecap="round" stroke-linejoin="round"/>
<path d="M1074.67 814.106H1014.64L1020.63 867.342H1068.67L1074.67 814.106Z" fill="#263238" stroke="#263238" stroke-linecap="round" stroke-linejoin="round"/>
<path d="M559.103 834.489C559.103 834.489 513.796 765.395 520.545 749.536C527.293 733.677 551.219 760.87 551.219 760.87C551.219 760.87 516.051 667.957 539.839 647.589C563.627 627.221 571.557 731.423 571.557 731.423C571.557 731.423 593.029 671.377 610.069 694.03C627.109 716.683 583.995 764.26 583.995 764.26C583.995 764.26 613.443 765.395 605.468 784.658C597.492 803.922 576.02 824.305 576.02 824.305L559.103 834.489Z" fill="#5A90C5"/>
<path d="M549.918 819.49C549.918 819.49 521.758 793.033 520.9 781.146C520.041 769.26 538.829 783.708 546.498 788.815C554.166 793.922 526.881 755.533 527.725 727.374C528.568 699.214 543.936 710.319 549.059 722.266C554.182 734.214 556.728 745.272 559.304 747.864C561.881 750.456 566.129 728.233 577.218 734.199C594.948 743.754 566.129 776.008 572.096 781.99C578.062 787.971 591.727 756.392 598.552 773.462C605.378 790.533 576.359 821.238 576.359 821.238" stroke="#263238" stroke-linecap="round" stroke-linejoin="round"/>
<path d="M567.834 817.772L546.5 753.785" stroke="#263238" stroke-linecap="round" stroke-linejoin="round"/>
<path d="M556.742 785.349L565.27 765.732" stroke="#263238" stroke-linecap="round" stroke-linejoin="round"/>
<path d="M539.672 798.155L563.567 804.122L575.515 795.594" stroke="#263238" stroke-linecap="round" stroke-linejoin="round"/>
<path d="M593.073 814.106H533.043L539.04 867.342H587.076L593.073 814.106Z" fill="#263238" stroke="#263238" stroke-linecap="round" stroke-linejoin="round"/>
<path d="M765.437 667.957C765.437 667.957 742.937 669.997 734.762 655.687C726.587 641.377 740.897 623.985 725.56 617.85C710.222 611.715 691.818 632.175 661.143 614.783C630.468 597.39 646.818 574.905 655.008 557.528C663.198 540.151 667.278 531.961 647.845 520.719C628.413 509.476 606.941 476.747 620.238 445.06C633.536 413.373 667.278 427.667 684.655 411.318C702.032 394.968 686.695 375.52 685.683 348.941C684.67 322.361 720.437 301.901 755.207 307.024C789.976 312.146 797.124 348.941 797.124 372.453C797.124 395.965 833.933 402.115 851.326 375.52C868.718 348.925 883.013 342.806 908.58 354.048C934.147 365.29 912.675 403.127 924.945 409.262C937.215 415.397 947.429 385.75 984.239 403.127C1021.05 420.505 1000.6 466.517 982.199 477.774C955.42 494.17 987 525.964 992.076 545.427C999.515 573.878 976.616 596.638 948.457 595.365C903.473 593.31 892.215 586.163 883.013 599.445C873.81 612.727 902.445 615.81 898.35 637.282C894.255 658.755 886.08 666.929 867.675 666.929C849.27 666.929 838.028 650.58 818.596 658.755C799.163 666.929 774.639 673.064 765.437 667.957Z" fill="#263238" stroke="#263238" stroke-linecap="round" stroke-linejoin="round"/>
<path d="M729.903 814.428C726.605 826.663 725.438 839.374 726.452 852.005C728.369 871.56 738.338 881.912 781.666 888.431C824.994 894.949 854.902 889.581 879.058 878.078C903.215 866.575 897.739 825.302 891.466 815.839C885.193 806.376 861.037 804.459 821.927 807.91C782.817 811.361 758.66 805.226 744.473 807.526C730.286 809.827 729.903 814.428 729.903 814.428Z" fill="#696969" stroke="#263238" stroke-linecap="round" stroke-linejoin="round"/>
<path opacity="0.3" d="M867.935 820.563C867.935 820.563 847.23 825.931 832.659 829.766C818.089 833.6 816.555 835.134 829.592 836.667C842.628 838.201 867.168 836.667 867.168 836.667C867.168 836.667 832.659 852.772 814.254 856.606C795.85 860.44 762.108 848.17 758.273 845.103C754.439 842.035 774.377 842.035 779.745 839.735C785.113 837.434 782.046 834.367 762.874 831.299C743.703 828.232 747.537 845.87 764.408 858.14C781.279 870.41 791.248 874.244 813.104 870.41C834.96 866.575 864.868 857.373 874.837 838.968C884.806 820.563 867.935 820.563 867.935 820.563Z" fill="black"/>
<path d="M720.133 697.788L717.587 749.015C717.587 749.015 712.986 760.917 721.268 768.554C729.55 776.192 740.225 773.938 745.808 764.03C751.391 754.122 750.624 731.193 752.035 722.128C753.446 713.064 742.418 703.724 733.354 700.334C724.289 696.945 720.133 697.788 720.133 697.788Z" fill="white" stroke="#263238" stroke-linecap="round" stroke-linejoin="round"/>
<path d="M899.487 697.788L902.033 749.015C902.033 749.015 906.558 760.917 898.352 768.554C890.147 776.192 879.38 773.938 873.721 764.03C868.061 754.122 868.905 731.193 867.494 722.128C866.083 713.064 877.126 703.724 886.175 700.334C895.224 696.945 899.487 697.788 899.487 697.788Z" fill="white" stroke="#263238" stroke-linecap="round" stroke-linejoin="round"/>
<path d="M789.444 621.454C789.444 621.454 790.411 642.773 785.242 651.807C780.073 660.84 763.601 660.288 752.957 660.288C742.313 660.288 726.469 669 721.301 677.727C717.401 684.883 714.058 692.328 711.301 699.997L746.822 719.046C746.822 719.046 742.942 726.484 746.822 737.45C750.702 748.417 756.5 752.634 754.889 758.125C753.279 763.616 732.282 802.68 730.35 808.815C729.373 811.656 728.619 814.569 728.095 817.527C728.095 817.527 772.972 826.253 812.036 824.965C851.1 823.677 891.468 815.916 891.468 815.916C891.468 815.916 879.521 794.935 873.064 782.987C866.606 771.039 860.794 758.769 862.082 754.567C863.37 750.364 870.809 739.076 870.487 719.368C870.487 719.368 899.214 711.944 909.873 699.997C909.873 699.997 897.281 668.678 884.367 663.509C871.453 658.341 856.607 663.509 846.024 660.61C835.441 657.712 829.874 652.528 828.263 648.663C826.653 644.798 825.027 626.7 825.671 622.513L789.444 621.454Z" fill="#5A90C5" stroke="#263238" stroke-linecap="round" stroke-linejoin="round"/>
<path opacity="0.3" d="M756.746 746.177C756.746 746.177 746.01 734.674 758.28 733.141C770.55 731.607 788.188 743.877 807.359 748.478C826.531 753.079 849.537 732.374 859.506 735.441C869.475 738.509 863.341 753.846 852.604 760.748C841.868 767.65 811.96 766.883 795.089 766.116C778.218 765.349 769.783 760.748 756.746 746.177Z" fill="black"/>
<path d="M770.543 753.294C770.543 753.294 776.386 757.972 792.015 757.972C807.644 757.972 819.622 750.962 830.573 752.91" stroke="#263238" stroke-linecap="round" stroke-linejoin="round"/>
<path d="M763.918 754.459C763.918 754.459 770.528 759.92 784.163 760.303" stroke="#263238" stroke-linecap="round" stroke-linejoin="round"/>
<path d="M746.816 718.969C746.816 718.969 747.936 713.187 755.344 707.727" stroke="#263238" stroke-linecap="round" stroke-linejoin="round"/>
<path d="M870.484 719.291C870.484 719.291 867.892 708.125 860.883 705.779" stroke="#263238" stroke-linecap="round" stroke-linejoin="round"/>
<path d="M810.101 699.92C835.362 698.923 843.291 674.613 845.776 660.488C835.239 657.574 829.794 652.436 828.184 648.586C826.573 644.736 824.948 626.623 825.592 622.436L789.442 621.454C789.442 621.454 790.408 642.773 785.239 651.807C782.601 656.408 776.988 658.525 770.715 659.475C773.107 669.613 782.816 701.009 810.101 699.92Z" fill="white"/>
<mask id="mask0_5360_1068" style="mask-type:luminance" maskUnits="userSpaceOnUse" x="770" y="621" width="76" height="79">
<path d="M810.101 699.92C835.362 698.923 843.291 674.613 845.776 660.488C835.239 657.574 829.794 652.436 828.184 648.586C826.573 644.736 824.948 626.623 825.592 622.436L789.442 621.454C789.442 621.454 790.408 642.773 785.239 651.807C782.601 656.408 776.988 658.525 770.715 659.475C773.107 669.613 782.816 701.009 810.101 699.92Z" fill="white"/>
</mask>
<g mask="url(#mask0_5360_1068)">
<path opacity="0.3" d="M826.225 637.374C825.582 632.423 825.371 627.424 825.596 622.436L789.446 621.454C789.636 626.946 789.446 632.445 788.879 637.911C795.229 642.068 808.097 647.037 826.225 637.374Z" fill="black"/>
</g>
<path d="M810.101 699.92C835.362 698.923 843.291 674.613 845.776 660.488C835.239 657.574 829.794 652.436 828.184 648.586C826.573 644.736 824.948 626.623 825.592 622.436L789.442 621.454C789.442 621.454 790.408 642.773 785.239 651.807C782.601 656.408 776.988 658.525 770.715 659.475C773.107 669.613 782.816 701.009 810.101 699.92Z" stroke="#263238" stroke-linecap="round" stroke-linejoin="round"/>
<path d="M774.105 577.467C774.105 577.467 769.504 569.967 764.979 574.537C760.455 579.108 764.979 588.218 767.909 592.451C770.838 596.684 776.375 599.936 777.678 598.31C778.982 596.684 774.105 577.467 774.105 577.467Z" fill="white" stroke="#263238" stroke-linecap="round" stroke-linejoin="round"/>
<path d="M844.779 576.792C844.779 576.792 851.298 568.326 854.887 576.47C858.476 584.614 848.752 596.991 844.15 599.277C839.549 601.562 841.865 594.062 842.187 591.455C842.509 588.847 844.779 576.792 844.779 576.792Z" fill="white" stroke="#263238" stroke-linecap="round" stroke-linejoin="round"/>
<path d="M770.543 548.786C770.543 548.786 772.828 579.737 774.454 595.366C776.08 610.994 781.908 625.013 799.822 629.614C817.736 634.215 832.03 627.988 837.291 617.559C842.552 607.129 845.435 587.267 845.435 570.979V544.906C845.435 544.906 799.178 531.854 770.543 548.786Z" fill="white" stroke="#263238" stroke-linecap="round" stroke-linejoin="round"/>
<path d="M805.043 593.08C806.699 594.179 808.601 594.854 810.58 595.043C812.653 594.828 814.654 594.157 816.439 593.08" stroke="#263238" stroke-linecap="round" stroke-linejoin="round"/>
<path d="M800.809 603.187C800.809 603.187 808.953 608.402 820.747 602.528" stroke="#263238" stroke-linecap="round" stroke-linejoin="round"/>
<path d="M787.785 576.792C787.785 576.792 794.626 575.826 798.521 578.433" stroke="#263238" stroke-width="2" stroke-linecap="round" stroke-linejoin="round"/>
<path d="M819.703 578.096C819.703 578.096 826.221 574.844 832.402 577.774" stroke="#263238" stroke-width="2" stroke-linecap="round" stroke-linejoin="round"/>
<path d="M772.475 573.832C774.709 570.065 776.456 566.03 777.675 561.823C779.655 556.316 780.271 550.411 779.469 544.614C776.373 545.73 773.385 547.127 770.543 548.786C770.543 548.786 771.402 560.918 772.475 573.832Z" fill="#263238" stroke="#263238" stroke-linecap="round" stroke-linejoin="round"/>
<path d="M845.425 571.24C845.425 571.133 845.425 571.041 845.425 570.933V544.86C845.425 544.86 842.235 543.97 837.035 542.958C837.373 548.019 838.891 563.28 845.425 571.24Z" fill="#263238" stroke="#263238" stroke-linecap="round" stroke-linejoin="round"/>
<path d="M785.18 565.396C785.18 565.396 790.716 557.912 802.434 560.182" stroke="#263238" stroke-linecap="round" stroke-linejoin="round"/>
<path d="M819.039 561.163C821.712 560.185 824.599 559.941 827.399 560.456C830.199 560.971 832.809 562.227 834.959 564.093" stroke="#263238" stroke-linecap="round" stroke-linejoin="round"/>
<path d="M813.107 870.41C813.107 870.41 798.154 870.41 771.313 843.953C744.473 817.496 727.602 795.257 706.897 786.054C686.191 776.852 666.253 797.174 667.403 819.03C668.553 840.885 684.657 871.56 732.587 889.198C780.516 906.836 821.543 899.551 825.761 899.551C829.979 899.551 850.684 909.903 862.954 911.054C869.708 911.777 876.521 911.777 883.276 911.054C883.276 911.054 886.727 911.437 888.644 911.437C890.561 911.437 892.862 909.136 892.862 909.136C892.862 909.136 896.742 910.149 898.276 907.465C899.809 904.781 898.613 903.768 898.613 903.768C898.613 903.768 905.177 904.336 907.478 900.118C909.779 895.9 906.496 896.069 906.496 896.069C906.496 896.069 910.99 895.195 910.883 891.575C910.967 890.227 910.703 888.88 910.116 887.664C910.116 887.664 912.8 883.446 911.65 879.995C910.5 876.545 906.282 875.394 902.064 877.311C897.846 879.229 877.524 878.462 861.037 877.311C844.549 876.161 813.107 870.41 813.107 870.41Z" fill="white" stroke="#263238" stroke-linecap="round" stroke-linejoin="round"/>
<path d="M806.436 868.876C799.595 866.407 787.663 860.118 771.313 843.999C744.473 817.496 727.602 795.257 706.897 786.054C686.191 776.852 666.253 797.174 667.403 819.03C668.553 840.885 684.657 871.56 732.587 889.198C750.462 895.727 769.2 899.598 788.2 900.685C805.623 893.416 807.249 878.078 806.436 868.876Z" fill="#696969"/>
<mask id="mask1_5360_1068" style="mask-type:luminance" maskUnits="userSpaceOnUse" x="667" y="783" width="140" height="118">
<path d="M806.436 868.876C799.595 866.407 787.663 860.118 771.313 843.999C744.473 817.496 727.602 795.257 706.897 786.054C686.191 776.852 666.253 797.174 667.403 819.03C668.553 840.885 684.657 871.56 732.587 889.198C750.462 895.727 769.2 899.598 788.2 900.685C805.623 893.416 807.249 878.078 806.436 868.876Z" fill="white"/>
</mask>
<g mask="url(#mask1_5360_1068)">
<path opacity="0.3" d="M799.916 892.403C792.355 889.535 783.521 886.468 773.613 883.446C738.337 872.71 712.263 859.674 694.626 839.735C676.988 819.796 683.123 794.49 683.123 794.49L679.058 790.809C675.156 794.363 672.087 798.736 670.072 803.615C668.057 808.494 667.145 813.757 667.402 819.03C668.552 840.885 684.656 871.56 732.585 889.198C750.461 895.727 769.199 899.598 788.199 900.686C792.707 898.895 796.724 896.056 799.916 892.403Z" fill="black"/>
</g>
<path d="M806.436 868.876C799.595 866.407 787.663 860.118 771.313 843.999C744.473 817.496 727.602 795.257 706.897 786.054C686.191 776.852 666.253 797.174 667.403 819.03C668.553 840.885 684.657 871.56 732.587 889.198C750.462 895.727 769.2 899.598 788.2 900.685C805.623 893.416 807.249 878.078 806.436 868.876Z" stroke="#263238" stroke-linecap="round" stroke-linejoin="round"/>
<path d="M910.114 887.664C908.937 887.135 907.656 886.877 906.366 886.908C905.076 886.94 903.81 887.261 902.66 887.848" fill="white"/>
<path d="M910.114 887.664C908.937 887.135 907.656 886.877 906.366 886.908C905.076 886.94 903.81 887.261 902.66 887.848" stroke="#263238" stroke-linecap="round" stroke-linejoin="round"/>
<path d="M906.494 896.069C904.512 895.351 902.341 895.351 900.359 896.069Z" fill="white"/>
<path d="M906.494 896.069C904.512 895.351 902.341 895.351 900.359 896.069" stroke="#263238" stroke-linecap="round" stroke-linejoin="round"/>
<path d="M898.61 903.769C897.194 902.703 895.44 902.186 893.672 902.312Z" fill="white"/>
<path d="M898.61 903.769C897.194 902.703 895.44 902.186 893.672 902.312" stroke="#263238" stroke-linecap="round" stroke-linejoin="round"/>
<path d="M892.459 908.753C892.459 908.753 890.818 905.793 888.41 905.793Z" fill="white"/>
<path d="M892.459 908.753C892.459 908.753 890.818 905.793 888.41 905.793" stroke="#263238" stroke-linecap="round" stroke-linejoin="round"/>
<path d="M796.098 870.41C796.098 870.41 811.052 870.41 837.893 843.953C864.733 817.496 881.604 795.257 902.309 786.054C923.015 776.852 942.953 797.174 941.803 819.03C940.653 840.885 924.548 871.56 876.619 889.198C828.69 906.836 787.663 899.551 783.445 899.551C779.227 899.551 758.522 909.903 746.252 911.054C739.497 911.777 732.685 911.777 725.93 911.054C725.93 911.054 722.479 911.437 720.562 911.437C718.645 911.437 716.344 909.136 716.344 909.136C716.344 909.136 712.464 910.149 710.93 907.465C709.397 904.781 710.593 903.768 710.593 903.768C710.593 903.768 704.013 904.336 701.713 900.118C699.412 895.9 702.694 896.069 702.694 896.069C702.694 896.069 698.2 895.195 698.308 891.575C698.219 890.225 698.489 888.876 699.09 887.664C699.09 887.664 696.406 883.446 697.556 879.995C698.706 876.545 702.924 875.394 707.142 877.311C711.36 879.229 731.682 878.462 748.169 877.311C764.657 876.161 796.098 870.41 796.098 870.41Z" fill="white" stroke="#263238" stroke-linecap="round" stroke-linejoin="round"/>
<path d="M802.754 868.876C809.579 866.406 821.511 860.118 837.876 843.999C864.717 817.542 881.588 795.303 902.293 786.1C922.998 776.898 942.937 797.22 941.787 819.075C940.636 840.931 924.532 871.606 876.603 889.244C858.722 895.775 839.98 899.645 820.975 900.731C803.567 893.415 801.956 878.078 802.754 868.876Z" fill="#696969"/>
<mask id="mask2_5360_1068" style="mask-type:luminance" maskUnits="userSpaceOnUse" x="802" y="783" width="140" height="118">
<path d="M802.754 868.876C809.579 866.406 821.511 860.118 837.876 843.999C864.717 817.542 881.588 795.303 902.293 786.1C922.998 776.898 942.937 797.22 941.787 819.075C940.636 840.931 924.532 871.606 876.603 889.244C858.722 895.775 839.98 899.645 820.975 900.731C803.567 893.415 801.956 878.078 802.754 868.876Z" fill="white"/>
</mask>
<g mask="url(#mask2_5360_1068)">
<path opacity="0.3" d="M941.801 819.03C942.599 803.8 933.151 789.337 920.329 785.057L914.716 789.122C914.716 789.122 933.887 800.625 929.286 822.864C924.685 845.103 887.109 868.109 857.201 880.379C842.31 886.216 827.027 890.997 811.465 894.689C814.26 897.235 817.485 899.265 820.989 900.686C839.994 899.6 858.737 895.729 876.618 889.198C924.547 871.56 940.651 840.885 941.801 819.03Z" fill="black"/>
</g>
<path d="M802.754 868.876C809.579 866.406 821.511 860.118 837.876 843.999C864.717 817.542 881.588 795.303 902.293 786.1C922.998 776.898 942.937 797.22 941.787 819.075C940.636 840.931 924.532 871.606 876.603 889.244C858.722 895.775 839.98 899.645 820.975 900.731C803.567 893.415 801.956 878.078 802.754 868.876Z" stroke="#263238" stroke-linecap="round" stroke-linejoin="round"/>
<path d="M699.09 887.664C700.267 887.135 701.548 886.877 702.838 886.908C704.128 886.94 705.394 887.261 706.544 887.848" fill="white"/>
<path d="M699.09 887.664C700.267 887.135 701.548 886.877 702.838 886.908C704.128 886.94 705.394 887.261 706.544 887.848" stroke="#263238" stroke-linecap="round" stroke-linejoin="round"/>
<path d="M702.695 896.069C704.677 895.351 706.848 895.351 708.83 896.069Z" fill="white"/>
<path d="M702.695 896.069C704.677 895.351 706.848 895.351 708.83 896.069" stroke="#263238" stroke-linecap="round" stroke-linejoin="round"/>
<path d="M710.59 903.769C712.006 902.703 713.76 902.186 715.528 902.312Z" fill="white"/>
<path d="M710.59 903.769C712.006 902.703 713.76 902.186 715.528 902.312" stroke="#263238" stroke-linecap="round" stroke-linejoin="round"/>
<path d="M716.742 908.753C716.742 908.753 718.399 905.686 720.791 905.686Z" fill="white"/>
<path d="M716.742 908.753C716.742 908.753 718.399 905.686 720.791 905.686" stroke="#263238" stroke-linecap="round" stroke-linejoin="round"/>
<path d="M726.636 752.42C726.636 752.42 720.976 751.285 710.792 756.377C700.608 761.469 691.252 770.533 685.869 773.647C680.486 776.76 676.82 778.754 672.065 773.938C667.311 769.122 657.066 755.809 647.434 756.101C637.802 756.392 634.412 769.69 636.115 772.512C637.817 775.334 640.363 775.916 642.342 773.647C644.32 771.377 646.866 766.852 649.412 768.555C651.958 770.257 650.547 778.186 646.59 779.597C642.633 781.008 631.866 787.803 634.412 791.775C636.958 795.748 651.406 801.116 662.158 801.959C672.909 802.803 686.222 795.456 694.995 794.03C703.768 792.603 727.556 790.962 738.583 781.867C741.759 779.283 744.193 775.903 745.637 772.072C747.082 768.241 747.484 764.095 746.804 760.058" fill="white"/>
<path d="M726.636 752.42C726.636 752.42 720.976 751.285 710.792 756.377C700.608 761.469 691.252 770.533 685.869 773.647C680.486 776.76 676.82 778.754 672.065 773.938C667.311 769.122 657.066 755.809 647.434 756.101C637.802 756.392 634.412 769.69 636.115 772.512C637.817 775.334 640.363 775.916 642.342 773.647C644.32 771.377 646.866 766.852 649.412 768.555C651.958 770.257 650.547 778.186 646.59 779.597C642.633 781.008 631.866 787.803 634.412 791.775C636.958 795.748 651.406 801.116 662.158 801.959C672.909 802.803 686.222 795.456 694.995 794.03C703.768 792.603 727.556 790.962 738.583 781.867C741.759 779.283 744.193 775.903 745.637 772.072C747.082 768.241 747.484 764.095 746.804 760.058" stroke="#263238" stroke-linecap="round" stroke-linejoin="round"/>
<path d="M635.76 785.824C635.76 785.824 634.641 773.37 630.96 772.512C627.279 771.653 626.711 780.18 627.279 788.37C627.846 796.56 632.371 798.846 635.193 796.576C638.015 794.306 635.76 785.824 635.76 785.824Z" fill="white" stroke="#263238" stroke-linecap="round" stroke-linejoin="round"/>
<path d="M644.611 789.337C644.611 789.337 645.685 776.867 642.218 775.38C638.752 773.892 636.697 782.159 635.792 790.334C634.887 798.508 638.967 801.545 642.157 799.827C645.347 798.11 644.611 789.337 644.611 789.337Z" fill="white" stroke="#263238" stroke-linecap="round" stroke-linejoin="round"/>
<path d="M652.249 792.189C652.249 792.189 653.338 779.735 649.856 778.248C646.375 776.76 644.335 785.027 643.445 793.202C642.556 801.376 646.605 804.413 649.795 802.68C652.985 800.947 652.249 792.189 652.249 792.189Z" fill="white" stroke="#263238" stroke-linecap="round" stroke-linejoin="round"/>
<path d="M672.279 801.392C667.14 803.762 661.527 804.927 655.868 804.797C655.54 802.448 655.351 800.082 655.301 797.711C655.301 794.643 661.804 781.867 671.436 782.711" fill="white"/>
<path d="M672.279 801.392C667.14 803.762 661.527 804.927 655.868 804.797C655.54 802.448 655.351 800.082 655.301 797.711C655.301 794.643 661.804 781.867 671.436 782.711" stroke="#263238" stroke-linecap="round" stroke-linejoin="round"/>
<path d="M660.359 797.051C660.359 797.051 663.964 787.297 660.988 785.027C658.013 782.757 654.347 788.8 651.786 795.149C649.224 801.499 652.461 805.211 655.835 804.797C659.209 804.382 660.359 797.051 660.359 797.051Z" fill="white" stroke="#263238" stroke-linecap="round" stroke-linejoin="round"/>
<path d="M892.965 752.42C892.965 752.42 898.624 751.285 908.824 756.377C919.023 761.469 928.348 770.533 933.731 773.647C939.115 776.76 942.796 778.754 947.612 773.938C952.428 769.122 962.611 755.809 972.228 756.101C981.844 756.392 985.249 769.69 983.562 772.512C981.875 775.334 979.314 775.916 977.335 773.647C975.357 771.377 972.734 766.852 970.249 768.555C967.765 770.257 969.115 778.186 973.087 779.597C977.059 781.008 987.811 787.803 985.249 791.775C982.688 795.748 968.271 801.116 957.52 801.959C946.768 802.803 933.455 795.456 924.667 794.03C915.879 792.603 892.121 790.962 881.078 781.867C877.903 779.283 875.47 775.903 874.028 772.071C872.587 768.24 872.188 764.094 872.873 760.058" fill="white"/>
<path d="M892.965 752.42C892.965 752.42 898.624 751.285 908.824 756.377C919.023 761.469 928.348 770.533 933.731 773.647C939.115 776.76 942.796 778.754 947.612 773.938C952.428 769.122 962.611 755.809 972.228 756.101C981.844 756.392 985.249 769.69 983.562 772.512C981.875 775.334 979.314 775.916 977.335 773.647C975.357 771.377 972.734 766.852 970.249 768.555C967.765 770.257 969.115 778.186 973.087 779.597C977.059 781.008 987.811 787.803 985.249 791.775C982.688 795.748 968.271 801.116 957.52 801.959C946.768 802.803 933.455 795.456 924.667 794.03C915.879 792.603 892.121 790.962 881.078 781.867C877.903 779.283 875.47 775.903 874.028 772.071C872.587 768.24 872.188 764.094 872.873 760.058" stroke="#263238" stroke-linecap="round" stroke-linejoin="round"/>
<path d="M983.844 785.824C983.844 785.824 984.979 773.37 988.66 772.512C992.341 771.653 992.908 780.18 992.341 788.37C991.773 796.56 987.249 798.846 984.411 796.576C981.574 794.306 983.844 785.824 983.844 785.824Z" fill="white" stroke="#263238" stroke-linecap="round" stroke-linejoin="round"/>
<path d="M975.006 789.337C975.006 789.337 973.917 776.867 977.383 775.38C980.849 773.892 982.92 782.159 983.81 790.334C984.699 798.508 980.665 801.545 977.46 799.858C974.254 798.171 975.006 789.337 975.006 789.337Z" fill="white" stroke="#263238" stroke-linecap="round" stroke-linejoin="round"/>
<path d="M967.352 792.189C967.352 792.189 966.279 779.735 969.745 778.248C973.211 776.76 975.282 785.027 976.171 793.202C977.061 801.376 972.997 804.413 969.822 802.68C966.647 800.947 967.352 792.189 967.352 792.189Z" fill="white" stroke="#263238" stroke-linecap="round" stroke-linejoin="round"/>
<path d="M947.32 801.392C952.479 803.77 958.114 804.934 963.793 804.797C964.12 802.448 964.31 800.082 964.36 797.711C964.36 794.643 957.842 781.867 948.21 782.711" fill="white"/>
<path d="M947.32 801.392C952.479 803.77 958.114 804.934 963.793 804.797C964.12 802.448 964.31 800.082 964.36 797.711C964.36 794.643 957.842 781.867 948.21 782.711" stroke="#263238" stroke-linecap="round" stroke-linejoin="round"/>
<path d="M959.193 797.051C959.193 797.051 955.588 787.297 958.564 785.027C961.539 782.757 965.189 788.8 967.766 795.149C970.343 801.499 967.091 805.211 963.717 804.797C960.343 804.382 959.193 797.051 959.193 797.051Z" fill="white" stroke="#263238" stroke-linecap="round" stroke-linejoin="round"/>
<path d="M838.031 529.921C834.427 524.691 828.829 529.783 827.387 531.348C825.854 529.814 820.347 524.691 816.759 529.921C812.848 535.611 827.265 547.467 827.387 547.406C827.51 547.344 841.896 535.611 838.031 529.921Z" stroke="#5A90C5" stroke-linecap="round" stroke-linejoin="round"/>
<path d="M802.219 534.614C797.716 528.554 791.652 523.83 784.673 520.949C773.446 516.562 780.762 507.789 785.639 510.213C788.787 511.758 792.048 513.061 795.394 514.108C795.394 514.108 782.71 503.863 782.234 495.09C781.759 486.317 795.394 497.529 795.394 497.529C795.394 497.529 778.814 474.707 784.182 470.719C789.55 466.731 794.412 474.139 797.832 480.474C800.261 485.208 802.377 490.095 804.167 495.105C804.167 495.105 803.201 479.017 808.569 483.894C813.937 488.771 810.516 513.157 810.516 513.157C810.516 513.157 817.832 493.219 821.253 503.955C824.673 514.691 803.691 533.142 802.219 534.614Z" stroke="#5A90C5" stroke-linecap="round" stroke-linejoin="round"/>
<path d="M802.22 534.614C802.22 534.614 810.026 511.194 793.938 480.934" stroke="#5A90C5" stroke-linecap="round" stroke-linejoin="round"/>
<path d="M775.454 379.14C769.863 379.098 764.365 380.577 759.549 383.419C751.881 388.02 750.04 379.846 753.66 378.051C755.975 376.878 758.2 375.535 760.316 374.033C760.316 374.033 748.598 376.947 743.2 373.312C737.801 369.677 750.516 366.625 750.516 366.625C750.516 366.625 729.58 366.195 729.672 361.287C729.764 356.379 736.252 356.686 741.528 357.576C745.407 358.255 749.239 359.182 753 360.352C753 360.352 743.062 353.741 748.322 352.683C753.583 351.625 766.482 364.585 766.482 364.585C766.482 364.585 757.939 351.349 765.792 354.11C773.644 356.87 775.239 377.622 775.454 379.14Z" stroke="#5A90C5" stroke-linecap="round" stroke-linejoin="round"/>
<path d="M775.454 379.14C775.454 379.14 765.116 364.079 740.07 360.091" stroke="#5A90C5" stroke-linecap="round" stroke-linejoin="round"/>
<path d="M872.326 476.041C871.892 476.05 871.46 476.107 871.038 476.21C871.686 475.591 872.177 474.826 872.468 473.978C872.76 473.13 872.843 472.225 872.712 471.338C872.581 470.452 872.238 469.609 871.714 468.882C871.189 468.156 870.498 467.565 869.697 467.161C868.897 466.757 868.012 466.551 867.115 466.561C866.219 466.57 865.338 466.795 864.546 467.216C863.755 467.636 863.076 468.241 862.567 468.979C862.058 469.717 861.733 470.566 861.621 471.455C861.261 470.698 860.736 470.03 860.085 469.503C859.433 468.975 858.671 468.601 857.855 468.407C857.039 468.213 856.19 468.205 855.371 468.384C854.551 468.562 853.782 468.923 853.121 469.438C852.46 469.954 851.922 470.611 851.549 471.362C851.176 472.113 850.976 472.938 850.965 473.777C850.953 474.615 851.13 475.446 851.483 476.207C851.835 476.968 852.354 477.64 853.001 478.173C852.277 478.536 851.641 479.051 851.135 479.683C850.63 480.315 850.268 481.05 850.074 481.835C849.879 482.621 849.858 483.44 850.011 484.234C850.163 485.029 850.487 485.782 850.958 486.44C851.43 487.097 852.038 487.645 852.742 488.045C853.446 488.445 854.228 488.688 855.034 488.756C855.841 488.825 856.652 488.718 857.413 488.442C858.175 488.167 858.867 487.73 859.443 487.161C859.569 488.566 860.223 489.872 861.274 490.814C862.324 491.757 863.692 492.267 865.103 492.242C866.514 492.216 867.863 491.658 868.879 490.678C869.894 489.698 870.501 488.371 870.578 486.961C871.142 487.15 871.731 487.253 872.326 487.268C873.815 487.268 875.243 486.677 876.295 485.624C877.348 484.571 877.939 483.143 877.939 481.655C877.939 480.166 877.348 478.738 876.295 477.685C875.243 476.633 873.815 476.041 872.326 476.041Z" stroke="#5A90C5" stroke-linecap="round" stroke-linejoin="round"/>
<path d="M862.767 484.339C864.91 484.339 866.647 482.601 866.647 480.458C866.647 478.315 864.91 476.578 862.767 476.578C860.624 476.578 858.887 478.315 858.887 480.458C858.887 482.601 860.624 484.339 862.767 484.339Z" stroke="#5A90C5" stroke-linecap="round" stroke-linejoin="round"/>
<path d="M760.088 520.197C759.648 520.205 759.211 520.262 758.784 520.366C759.437 519.749 759.931 518.984 760.226 518.136C760.521 517.287 760.607 516.38 760.478 515.492C760.348 514.603 760.007 513.758 759.483 513.029C758.958 512.3 758.266 511.708 757.464 511.303C756.663 510.897 755.776 510.691 754.878 510.7C753.98 510.71 753.097 510.936 752.304 511.358C751.512 511.781 750.833 512.388 750.324 513.128C749.815 513.868 749.492 514.72 749.382 515.612C748.832 514.467 747.91 513.543 746.765 512.992C745.621 512.441 744.324 512.295 743.086 512.579C741.848 512.863 740.744 513.559 739.954 514.553C739.163 515.547 738.735 516.78 738.738 518.05C738.739 518.869 738.922 519.677 739.272 520.416C739.621 521.156 740.131 521.809 740.763 522.329C740.039 522.692 739.403 523.207 738.897 523.839C738.392 524.471 738.03 525.206 737.835 525.991C737.641 526.777 737.62 527.596 737.772 528.391C737.925 529.186 738.248 529.938 738.72 530.596C739.191 531.254 739.8 531.801 740.504 532.201C741.207 532.601 741.989 532.844 742.796 532.913C743.602 532.981 744.414 532.874 745.175 532.598C745.936 532.323 746.629 531.886 747.204 531.317C747.353 532.704 748.016 533.984 749.062 534.907C750.107 535.83 751.461 536.328 752.855 536.303C754.25 536.278 755.584 535.732 756.597 534.772C757.609 533.812 758.225 532.509 758.324 531.118C758.891 531.315 759.487 531.419 760.088 531.424C761.576 531.424 763.004 530.833 764.057 529.78C765.11 528.727 765.701 527.3 765.701 525.811C765.701 524.322 765.11 522.894 764.057 521.842C763.004 520.789 761.576 520.197 760.088 520.197Z" stroke="#5A90C5" stroke-linecap="round" stroke-linejoin="round"/>
<path d="M750.517 528.495C752.66 528.495 754.397 526.758 754.397 524.614C754.397 522.471 752.66 520.734 750.517 520.734C748.374 520.734 746.637 522.471 746.637 524.614C746.637 526.758 748.374 528.495 750.517 528.495Z" stroke="#5A90C5" stroke-linecap="round" stroke-linejoin="round"/>
<path d="M757.021 450.443C756.747 450.448 756.474 450.484 756.208 450.551C756.553 450.229 756.828 449.84 757.016 449.407C757.203 448.974 757.299 448.507 757.297 448.035C757.339 447.124 757.021 446.232 756.413 445.552C755.804 444.873 754.952 444.459 754.042 444.401C753.131 444.342 752.234 444.644 751.543 445.241C750.853 445.837 750.424 446.681 750.349 447.591C750.125 447.12 749.798 446.705 749.392 446.377C748.986 446.05 748.512 445.817 748.004 445.698C747.496 445.578 746.968 445.574 746.459 445.686C745.949 445.798 745.471 446.023 745.06 446.344C744.65 446.666 744.316 447.075 744.085 447.543C743.854 448.011 743.73 448.524 743.724 449.046C743.718 449.567 743.829 450.084 744.049 450.556C744.27 451.029 744.593 451.447 744.997 451.778C744.42 452.058 743.934 452.494 743.593 453.036C743.251 453.578 743.068 454.204 743.064 454.845C743.043 455.551 743.236 456.246 743.618 456.839C744 457.433 744.552 457.897 745.203 458.171C745.853 458.445 746.571 458.515 747.263 458.373C747.954 458.232 748.586 457.884 749.076 457.376C749.173 458.239 749.589 459.034 750.241 459.606C750.894 460.178 751.737 460.486 752.605 460.469C753.473 460.451 754.304 460.11 754.933 459.513C755.563 458.915 755.946 458.104 756.009 457.238C756.357 457.367 756.726 457.435 757.098 457.437C758.025 457.437 758.915 457.069 759.57 456.413C760.226 455.757 760.595 454.868 760.595 453.94C760.595 453.013 760.226 452.123 759.57 451.468C758.915 450.812 758.025 450.443 757.098 450.443H757.021Z" stroke="#5A90C5" stroke-linecap="round" stroke-linejoin="round"/>
<path d="M751.072 455.612C752.41 455.612 753.495 454.527 753.495 453.189C753.495 451.85 752.41 450.765 751.072 450.765C749.733 450.765 748.648 451.85 748.648 453.189C748.648 454.527 749.733 455.612 751.072 455.612Z" stroke="#5A90C5" stroke-linecap="round" stroke-linejoin="round"/>
<path d="M725.412 557.528C725.143 557.533 724.875 557.569 724.614 557.636C724.955 557.311 725.225 556.921 725.41 556.488C725.594 556.056 725.689 555.591 725.688 555.12C725.684 554.238 725.345 553.391 724.74 552.749C724.136 552.107 723.31 551.719 722.429 551.662C721.549 551.606 720.68 551.885 719.998 552.445C719.316 553.004 718.872 553.801 718.755 554.676C718.529 554.208 718.201 553.797 717.796 553.473C717.39 553.149 716.917 552.92 716.411 552.802C715.906 552.684 715.38 552.681 714.873 552.793C714.366 552.904 713.89 553.128 713.481 553.448C713.071 553.767 712.738 554.174 712.507 554.638C712.275 555.103 712.15 555.614 712.141 556.133C712.132 556.652 712.239 557.167 712.455 557.639C712.671 558.111 712.989 558.529 713.387 558.863C712.939 559.089 712.546 559.41 712.233 559.803C711.921 560.196 711.697 560.651 711.577 561.139C711.457 561.626 711.444 562.134 711.539 562.627C711.634 563.12 711.834 563.587 712.126 563.995C712.418 564.403 712.795 564.744 713.231 564.993C713.667 565.242 714.151 565.394 714.651 565.438C715.151 565.482 715.655 565.418 716.128 565.249C716.601 565.08 717.031 564.812 717.39 564.461C717.487 565.324 717.903 566.119 718.556 566.691C719.209 567.263 720.052 567.571 720.92 567.554C721.788 567.536 722.618 567.195 723.247 566.598C723.877 566 724.261 565.189 724.323 564.323C724.672 564.451 725.04 564.518 725.412 564.522C726.339 564.522 727.229 564.154 727.885 563.498C728.54 562.842 728.909 561.953 728.909 561.025C728.909 560.098 728.54 559.208 727.885 558.553C727.229 557.897 726.339 557.528 725.412 557.528Z" stroke="#5A90C5" stroke-linecap="round" stroke-linejoin="round"/>
<path d="M719.458 562.697C720.797 562.697 721.882 561.612 721.882 560.274C721.882 558.935 720.797 557.85 719.458 557.85C718.12 557.85 717.035 558.935 717.035 560.274C717.035 561.612 718.12 562.697 719.458 562.697Z" stroke="#5A90C5" stroke-linecap="round" stroke-linejoin="round"/>
<path d="M793.292 392.33C793.022 392.335 792.755 392.371 792.494 392.437C792.896 392.053 793.199 391.577 793.38 391.051C793.56 390.525 793.612 389.963 793.53 389.413C793.449 388.863 793.237 388.34 792.912 387.889C792.587 387.438 792.158 387.071 791.663 386.819C791.167 386.567 790.618 386.437 790.061 386.441C789.505 386.445 788.958 386.582 788.466 386.841C787.973 387.1 787.55 387.473 787.232 387.929C786.913 388.385 786.709 388.911 786.635 389.462C786.294 388.745 785.719 388.167 785.004 387.821C784.29 387.476 783.479 387.386 782.706 387.565C781.932 387.744 781.244 388.182 780.753 388.806C780.263 389.429 780.001 390.202 780.009 390.996C780.009 391.504 780.121 392.005 780.339 392.464C780.557 392.923 780.874 393.328 781.267 393.649C780.559 393.995 779.989 394.57 779.651 395.281C779.312 395.992 779.225 396.797 779.403 397.565C779.581 398.332 780.014 399.016 780.631 399.506C781.248 399.995 782.013 400.261 782.801 400.26C783.254 400.26 783.703 400.171 784.121 399.997C784.54 399.823 784.92 399.568 785.239 399.247C785.335 400.11 785.749 400.906 786.4 401.479C787.052 402.052 787.894 402.362 788.762 402.346C789.629 402.331 790.46 401.992 791.091 401.396C791.722 400.8 792.107 399.99 792.172 399.125C792.523 399.245 792.89 399.313 793.261 399.324C794.188 399.324 795.078 398.956 795.734 398.3C796.389 397.644 796.758 396.754 796.758 395.827C796.758 394.9 796.389 394.01 795.734 393.354C795.078 392.699 794.188 392.33 793.261 392.33H793.292Z" stroke="#5A90C5" stroke-linecap="round" stroke-linejoin="round"/>
<path d="M787.341 397.499C788.68 397.499 789.765 396.414 789.765 395.075C789.765 393.737 788.68 392.652 787.341 392.652C786.003 392.652 784.918 393.737 784.918 395.075C784.918 396.414 786.003 397.499 787.341 397.499Z" stroke="#5A90C5" stroke-linecap="round" stroke-linejoin="round"/>
<path d="M868.215 414.4C867.941 414.405 867.668 414.441 867.402 414.508C867.747 414.186 868.022 413.797 868.209 413.364C868.397 412.931 868.493 412.464 868.491 411.993C868.533 411.081 868.215 410.189 867.606 409.509C866.998 408.83 866.146 408.416 865.235 408.358C864.325 408.3 863.427 408.601 862.737 409.198C862.046 409.794 861.618 410.638 861.543 411.548C861.319 411.077 860.992 410.662 860.586 410.334C860.18 410.007 859.706 409.775 859.198 409.655C858.69 409.535 858.162 409.531 857.652 409.643C857.143 409.755 856.665 409.98 856.254 410.301C855.843 410.623 855.51 411.033 855.279 411.5C855.047 411.968 854.924 412.481 854.918 413.003C854.912 413.524 855.023 414.041 855.243 414.514C855.463 414.987 855.787 415.404 856.19 415.735C855.614 416.015 855.128 416.451 854.787 416.993C854.445 417.535 854.262 418.162 854.258 418.802C854.259 419.489 854.463 420.161 854.843 420.733C855.224 421.305 855.764 421.752 856.397 422.019C857.03 422.285 857.728 422.36 858.403 422.232C859.078 422.105 859.701 421.781 860.193 421.302C860.29 422.165 860.706 422.96 861.359 423.533C862.011 424.105 862.855 424.412 863.723 424.395C864.591 424.378 865.421 424.037 866.05 423.439C866.68 422.842 867.064 422.03 867.126 421.164C867.474 421.294 867.843 421.361 868.215 421.364C869.142 421.364 870.032 420.995 870.687 420.339C871.343 419.684 871.712 418.794 871.712 417.867C871.712 416.939 871.343 416.05 870.687 415.394C870.032 414.738 869.142 414.37 868.215 414.37V414.4Z" stroke="#5A90C5" stroke-linecap="round" stroke-linejoin="round"/>
<path d="M862.263 419.569C863.601 419.569 864.686 418.484 864.686 417.146C864.686 415.807 863.601 414.723 862.263 414.723C860.925 414.723 859.84 415.807 859.84 417.146C859.84 418.484 860.925 419.569 862.263 419.569Z" stroke="#5A90C5" stroke-linecap="round" stroke-linejoin="round"/>
<path d="M822.695 459.369C824.647 454.065 827.043 448.934 829.858 444.032C833.431 438.403 846.207 437.391 846.207 437.391C846.207 437.391 839.566 448.127 836.499 453.235C833.431 458.342 822.695 459.369 822.695 459.369Z" stroke="#5A90C5" stroke-linecap="round" stroke-linejoin="round"/>
<path d="M822.695 459.37C822.695 459.37 832.404 445.566 843.661 438.925" stroke="#5A90C5" stroke-linecap="round" stroke-linejoin="round"/>
<path d="M675.258 509.124C680.77 507.875 686.378 507.09 692.022 506.777C698.678 506.777 706.515 516.869 706.515 516.869C706.515 516.869 693.877 517.145 687.926 517.36C681.976 517.575 675.258 509.124 675.258 509.124Z" stroke="#5A90C5" stroke-linecap="round" stroke-linejoin="round"/>
<path d="M675.258 509.124C675.258 509.124 692.129 509.753 703.831 515.55" stroke="#5A90C5" stroke-linecap="round" stroke-linejoin="round"/>
<path d="M902.799 497.452C902.799 497.452 900.314 485.903 894.9 486.578C889.486 487.253 893.857 500.842 893.857 500.842C893.857 500.842 886.741 502.866 887.078 505.918C887.415 508.97 892.477 506.424 896.863 505.75C896.863 505.75 895.099 513.679 899.839 514.952C904.578 516.225 903.673 504.492 903.673 504.492C903.673 504.492 914.256 506.654 917.231 501.915C920.682 496.47 907.201 496.762 902.799 497.452Z" stroke="#5A90C5" stroke-linecap="round" stroke-linejoin="round"/>
<path d="M902.804 493.894C902.804 493.894 892.926 508.909 893.509 510.489C894.092 512.069 904.782 497.452 906.561 495.673C908.34 493.894 905.181 491.317 902.804 493.894Z" fill="#263238" stroke="#5A90C5" stroke-linecap="round" stroke-linejoin="round"/>
<path d="M906.559 495.673C906.559 495.673 913.077 489.737 916.236 492.115C919.396 494.492 915.654 494.875 915.255 494.093" stroke="#5A90C5" stroke-linecap="round" stroke-linejoin="round"/>
<path d="M903.396 492.698C903.396 492.698 905.175 484.001 903.197 482.222C901.218 480.443 900.421 482.82 901.816 484.201" stroke="#5A90C5" stroke-linecap="round" stroke-linejoin="round"/>
<path d="M808.891 424.953C803.615 417.284 795.455 424.753 793.262 427.038C791.054 424.753 782.894 417.253 777.618 424.953C771.867 433.311 793.063 450.735 793.262 450.658C793.462 450.581 814.612 433.296 808.891 424.953Z" stroke="#5A90C5" stroke-linecap="round" stroke-linejoin="round"/>
<path d="M735.684 395.045C730.223 391.793 727.325 398.741 726.604 400.766C724.595 399.983 717.401 397.698 716.343 403.925C715.178 410.72 733.214 415.474 733.322 415.367C733.429 415.259 741.604 398.572 735.684 395.045Z" stroke="#5A90C5" stroke-linecap="round" stroke-linejoin="round"/>
<path d="M684.781 458.296C678.447 457.82 678.937 465.336 679.213 467.498C677.066 467.698 669.612 468.817 671.437 474.891C673.416 481.501 691.698 477.698 691.729 477.56C691.759 477.422 691.652 458.817 684.781 458.296Z" stroke="#5A90C5" stroke-linecap="round" stroke-linejoin="round"/>
<path d="M885.839 557.651C890.87 553.771 885.486 548.449 883.86 547.099C885.394 545.565 890.133 539.706 884.719 536.363C878.83 532.759 867.756 547.789 867.848 547.912C867.94 548.035 880.379 561.853 885.839 557.651Z" stroke="#5A90C5" stroke-linecap="round" stroke-linejoin="round"/>
<path d="M856.512 454.431C859.948 451.241 863.79 448.519 867.938 446.333" stroke="#5A90C5" stroke-linecap="round" stroke-linejoin="round"/>
<path d="M828.062 516.118C828.062 516.118 831.651 485.581 848.461 463.342" stroke="#5A90C5" stroke-linecap="round" stroke-linejoin="round"/>
<path d="M782.723 529.078C784.172 531.322 785.483 533.652 786.649 536.056" stroke="#5A90C5" stroke-linecap="round" stroke-linejoin="round"/>
<path d="M725.625 492.836C727.832 494.599 730.314 495.988 732.972 496.946C745.103 501.547 762.036 506.148 775.211 519.676" stroke="#5A90C5" stroke-linecap="round" stroke-linejoin="round"/>
<path d="M719.935 478.541C719.339 481.758 719.881 485.082 721.469 487.943" stroke="#5A90C5" stroke-linecap="round" stroke-linejoin="round"/>
<path d="M861.668 398.879C865.523 395.375 868.691 391.183 871.008 386.517" stroke="#5A90C5" stroke-linecap="round" stroke-linejoin="round"/>
<path d="M816.223 443.695C818.721 437.419 822.2 431.579 826.529 426.394C835.256 416.011 844.658 411.057 853.017 405.459" stroke="#5A90C5" stroke-linecap="round" stroke-linejoin="round"/>
<path d="M811.191 468.572C811.191 464.97 811.524 461.376 812.188 457.836" stroke="#5A90C5" stroke-linecap="round" stroke-linejoin="round"/>
<path d="M859.012 530.811C865.392 527.59 874.349 525.167 886.343 526.087C916.251 528.388 930.054 537.59 943.091 519.952" stroke="#5A90C5" stroke-linecap="round" stroke-linejoin="round"/>
<path d="M845.699 542.191C847.076 540.063 848.749 538.141 850.668 536.486" stroke="#5A90C5" stroke-linecap="round" stroke-linejoin="round"/>
<path d="M909.29 461.44H905.195C902.726 461.44 898.217 458.572 900.272 456.103C902.327 453.633 909.29 459.385 909.29 459.385L903.155 440.106L916.284 433.971L921.622 452.023C921.622 452.023 913.416 448.741 912.588 452.422C911.76 456.103 917.925 455.704 921.622 454.063" stroke="#5A90C5" stroke-linecap="round" stroke-linejoin="round"/>
<path d="M904.367 444.201L917.082 438.051" stroke="#5A90C5" stroke-linecap="round" stroke-linejoin="round"/>
<path d="M937.494 455.305H934.794C933.153 455.305 930.193 453.403 931.527 451.778C932.862 450.152 937.494 453.94 937.494 453.94L933.429 441.195L942.11 437.13L945.638 449.063C945.638 449.063 940.208 446.9 939.672 449.339C939.135 451.778 943.199 451.501 945.638 450.412" stroke="#5A90C5" stroke-linecap="round" stroke-linejoin="round"/>
<path d="M934.242 443.909L942.647 439.845" stroke="#5A90C5" stroke-linecap="round" stroke-linejoin="round"/>
<path d="M698.998 441.502H696.298C694.657 441.502 691.697 439.6 693.031 437.974C694.366 436.348 698.998 440.136 698.998 440.136L694.933 427.391L703.614 423.327L707.142 435.259C707.142 435.259 701.712 433.097 701.175 435.535C700.639 437.974 704.703 437.698 707.142 436.609" stroke="#5A90C5" stroke-linecap="round" stroke-linejoin="round"/>
<path d="M695.746 430.106L704.151 426.042" stroke="#5A90C5" stroke-linecap="round" stroke-linejoin="round"/>
<path d="M956.126 484.615C956.126 484.615 967.23 481.271 965.467 474.707C963.933 469.155 958.749 474.707 958.749 474.707C958.749 474.707 961.97 469.492 957.215 467.038C952.461 464.584 951.08 471.302 951.08 471.302C951.08 471.302 950.129 465.075 945.804 467.943C941.479 470.811 950.605 486.179 950.605 486.179L956.126 484.615Z" stroke="#5A90C5" stroke-linecap="round" stroke-linejoin="round"/>
<path d="M941.895 508.311C946.237 501.609 949.175 494.095 950.529 486.225L955.253 471.624" stroke="#5A90C5" stroke-linecap="round" stroke-linejoin="round"/>
<path d="M947.647 496.793C948.108 493.771 947.424 490.686 945.73 488.142C944.037 485.298 941.939 482.715 939.503 480.474C939.503 480.474 938.061 485.75 939.012 489.109C939.963 492.468 947.647 496.793 947.647 496.793Z" stroke="#5A90C5" stroke-linecap="round" stroke-linejoin="round"/>
<path d="M946.223 500.627C948.088 499.025 950.482 498.172 952.94 498.234H962.051C962.051 498.234 950.532 507.345 946.223 500.627Z" stroke="#5A90C5" stroke-linecap="round" stroke-linejoin="round"/>
<path d="M949.059 474.093L950.5 485.443L958.552 479.461" stroke="#5A90C5" stroke-linecap="round" stroke-linejoin="round"/>
<path d="M697.648 534.108C697.648 534.108 690.378 525.09 684.964 529.185C680.363 532.667 687.495 535.412 687.495 535.412C687.495 535.412 681.437 534.4 681.022 539.752C680.608 545.105 687.265 543.725 687.265 543.725C687.265 543.725 681.851 546.961 686.145 549.86C690.44 552.758 701.237 538.541 701.237 538.541L697.648 534.108Z" stroke="#5A90C5" stroke-linecap="round" stroke-linejoin="round"/>
<path d="M724.936 538.326C717.098 536.821 709.036 536.925 701.24 538.633L685.902 539.768" stroke="#5A90C5" stroke-linecap="round" stroke-linejoin="round"/>
<path d="M712.098 537.329C709.129 538.041 706.531 539.835 704.813 542.36C702.816 545.002 701.215 547.921 700.059 551.025C700.059 551.025 705.488 550.381 708.233 548.219C710.979 546.056 712.098 537.329 712.098 537.329Z" stroke="#5A90C5" stroke-linecap="round" stroke-linejoin="round"/>
<path d="M716.194 537.222C714.004 536.099 712.31 534.202 711.44 531.9C709.829 527.897 708.02 523.449 708.02 523.449C708.02 523.449 720.796 530.688 716.194 537.222Z" stroke="#5A90C5" stroke-linecap="round" stroke-linejoin="round"/>
<path d="M690.551 544.568L700.52 538.955L691.946 533.756" stroke="#5A90C5" stroke-linecap="round" stroke-linejoin="round"/>
<path d="M771.835 495.55C771.377 494.502 770.865 493.479 770.301 492.483C767.556 487.437 763.522 483.004 757.188 483.909C746.452 485.443 766.39 502.314 769.979 502.82C774.397 503.449 773.262 498.955 771.835 495.55Z" fill="#5A90C5"/>
<path d="M763.663 432.161C763.111 430.858 762.528 429.723 762.13 429.094C759.369 424.032 755.351 419.615 749.016 420.52C738.28 422.054 758.219 438.925 761.808 439.431C766.225 440.06 765.09 435.551 763.663 432.161Z" fill="#5A90C5"/>
<path d="M871.572 501.777C870.207 502.176 869.011 502.636 868.351 502.897C863.014 505.044 858.152 508.541 858.321 514.937C858.612 525.78 877.661 507.912 878.581 504.4C879.701 500.151 875.1 500.78 871.572 501.777Z" fill="#5A90C5"/>
<path d="M885.381 444.523C884.288 444.84 883.213 445.214 882.16 445.643C876.822 447.79 871.961 451.271 872.129 457.667C872.421 468.511 891.47 450.643 892.39 447.146C893.509 442.882 888.908 443.495 885.381 444.523Z" fill="#5A90C5"/>
<path d="M963.983 440.965C962.894 441.277 961.823 441.65 960.777 442.084C955.44 444.232 950.578 447.713 950.746 454.109C951.038 464.952 970.087 447.084 971.007 443.587C972.127 439.278 967.525 439.891 963.983 440.965Z" fill="#5A90C5"/>
<path d="M748.444 493.112C748.231 492.588 747.991 492.076 747.724 491.578C746.389 489.124 744.426 486.977 741.328 487.391C736.083 488.142 745.822 496.378 747.57 496.593C749.702 496.961 749.15 494.768 748.444 493.112Z" fill="#5A90C5"/>
<path d="M711.005 453.327C710.484 452.882 709.962 452.514 709.686 452.314C707.37 450.704 704.656 449.661 702.094 451.44C697.739 454.508 710.131 457.452 711.803 456.9C713.797 456.21 712.37 454.508 711.005 453.327Z" fill="#5A90C5"/>
<path d="M766.343 472.146C766.131 471.621 765.89 471.109 765.622 470.612C764.272 468.142 762.309 466.011 759.226 466.425C753.981 467.176 763.72 475.397 765.469 475.627C767.585 476.011 767.033 473.802 766.343 472.146Z" fill="#5A90C5"/>
<path d="M676.054 437.606C675.844 437.081 675.603 436.569 675.333 436.072C673.999 433.603 672.035 431.471 668.937 431.885C663.692 432.637 673.431 440.873 675.18 441.087C677.312 441.456 676.759 439.262 676.054 437.606Z" fill="#5A90C5"/>
<path d="M700.455 491.332C699.96 491.032 699.448 490.761 698.921 490.52C696.406 489.293 693.553 488.679 691.252 490.826C687.418 494.492 700.133 495.535 701.697 494.722C703.722 493.74 701.988 492.268 700.455 491.332Z" fill="#5A90C5"/>
<path d="M761.745 411.824C761.532 411.3 761.291 410.788 761.024 410.29C759.675 407.836 757.712 405.689 754.629 406.103C749.383 406.855 759.123 415.091 760.871 415.305C762.988 415.673 762.435 413.48 761.745 411.824Z" fill="#5A90C5"/>
<path d="M819.429 474.155C819.015 474.691 818.662 475.213 818.478 475.504C816.944 477.866 816.009 480.642 817.895 483.173C821.086 487.406 823.601 474.906 822.972 473.25C822.205 471.195 820.549 472.744 819.429 474.155Z" fill="#5A90C5"/>
<path d="M843.964 506.363C843.55 506.9 843.197 507.421 843.013 507.713C841.48 510.075 840.544 512.851 842.431 515.381C845.621 519.615 848.136 507.115 847.507 505.458C846.74 503.403 845.084 504.952 843.964 506.363Z" fill="#5A90C5"/>
<path d="M878.139 422.56C877.619 422.701 877.107 422.87 876.605 423.066C873.983 424.063 871.575 425.72 871.59 428.833C871.59 434.124 881.099 425.612 881.59 423.91C882.127 421.763 879.887 422.008 878.139 422.56Z" fill="#5A90C5"/>
<path d="M818.907 403.281C818.416 403.756 817.986 404.217 817.756 404.477C815.9 406.579 814.535 409.171 816.023 411.916C818.523 416.517 822.91 404.615 822.557 402.898C822.112 400.781 820.226 402.054 818.907 403.281Z" fill="#5A90C5"/>
<path d="M713.154 511.516C713.552 511.898 713.972 512.256 714.411 512.59C716.635 514.323 719.304 515.504 721.957 513.863C726.451 511.087 714.289 507.437 712.54 507.912C710.47 508.449 711.85 510.243 713.154 511.516Z" fill="#5A90C5"/>
<path d="M904.779 423.127C904.104 423.127 903.476 423.127 903.123 423.127C900.316 423.296 897.525 424.155 896.605 427.13C895.071 432.192 906.65 426.9 907.617 425.428C908.798 423.634 906.589 423.204 904.779 423.127Z" fill="#5A90C5"/>
<defs>
<linearGradient id="paint0_linear_5360_1068" x1="808" y1="1187" x2="808" y2="1272" gradientUnits="userSpaceOnUse">
<stop stop-color="#DBEAF5"/>
<stop offset="1" stop-color="#F7F9FB"/>
</linearGradient>
<linearGradient id="paint1_linear_5360_1068" x1="2320" y1="868" x2="2320" y2="1183.3" gradientUnits="userSpaceOnUse">
<stop stop-color="#DBEAF5"/>
<stop offset="1" stop-color="white"/>
</linearGradient>
</defs>
</svg>
