<svg width="80" height="80" viewBox="0 0 80 80" fill="none" xmlns="http://www.w3.org/2000/svg">
<path d="M13.332 46.8984C16.7137 46.8984 21.4361 45.895 24.3968 48.0644L30.2716 52.3694C32.4543 53.9687 34.818 53.4417 37.2537 53.0594C40.4617 52.5557 43.332 55.2917 43.332 58.854C43.332 59.8274 36.4227 62.3017 35.424 62.772C33.4624 63.696 31.2086 63.4687 29.4327 62.1674L22.8057 57.3114" stroke="#5A90C5" stroke-width="5" stroke-linecap="round" stroke-linejoin="round"/>
<path d="M43.332 56.6666L56.9687 50.3653C59.4134 49.5133 62.109 50.1783 63.931 52.0833L66.167 54.4206C66.966 55.2559 66.778 56.6586 65.7904 57.2323L39.6084 72.4383C38.031 73.3543 36.17 73.5779 34.435 73.0596L13.332 66.7563" stroke="#5A90C5" stroke-width="5" stroke-linecap="round" stroke-linejoin="round"/>
<path d="M40.0013 40C40.0013 40 47.0013 32.5381 47.0013 23.3334C47.0013 14.1286 40.0013 6.66669 40.0013 6.66669C40.0013 6.66669 33.0013 14.1286 33.0013 23.3334C33.0013 32.5381 40.0013 40 40.0013 40ZM40.0013 40C40.0013 40 50.2246 39.772 56.668 33.1973C63.1113 26.6225 63.3346 16.1905 63.3346 16.1905C63.3346 16.1905 59.103 16.2848 54.369 18.1029M40.0013 40C40.0013 40 29.778 39.772 23.3346 33.1973C16.8913 26.6225 16.668 16.1905 16.668 16.1905C16.668 16.1905 20.8995 16.2848 25.6335 18.1029" stroke="#5A90C5" stroke-width="5" stroke-linecap="round" stroke-linejoin="round"/>
</svg>
